<svg aria-hidden="true" style="position: absolute; width: 0; height: 0; overflow: hidden;" version="1.1" xmlns="http://www.w3.org/2000/svg" xmlns:xlink="http://www.w3.org/1999/xlink">
<defs>
<symbol id="icon-Bookmark-fill" viewBox="0 0 32 32">
<path fill="#dbdedf" style="fill: var(--color1, #dbdedf)" d="M4.444 0h23.111v32l-11.556-6.857-11.556 6.857v-32z"></path>
</symbol>
<symbol id="icon-Bookmark-save" viewBox="0 0 32 32">
<path fill="#efcc00" style="fill: var(--color2, #efcc00)" d="M25.814 0h-19.629c-0.539-0.001-1.056 0.188-1.438 0.525s-0.597 0.795-0.599 1.272v28.403c-0.004 0.355 0.113 0.703 0.335 0.999s0.54 0.525 0.912 0.659c0.371 0.139 0.779 0.177 1.175 0.11s0.759-0.236 1.046-0.485l8.141-7.085c0.065-0.056 0.152-0.088 0.243-0.088s0.178 0.031 0.243 0.088l8.144 7.082c0.287 0.25 0.651 0.419 1.046 0.486s0.804 0.028 1.175-0.111c0.371-0.134 0.687-0.363 0.909-0.658s0.339-0.642 0.335-0.997v-28.403c-0.002-0.478-0.217-0.935-0.599-1.272s-0.899-0.526-1.438-0.525v0zM26.159 30.2c0.001 0.059-0.018 0.117-0.055 0.166s-0.091 0.086-0.153 0.107c-0.063 0.026-0.133 0.034-0.2 0.023s-0.13-0.041-0.178-0.085v0l-8.144-7.083c-0.383-0.33-0.895-0.515-1.429-0.515s-1.047 0.185-1.429 0.515l-8.141 7.083c-0.048 0.044-0.11 0.073-0.178 0.084s-0.138 0.003-0.2-0.022c-0.062-0.021-0.116-0.058-0.153-0.107s-0.057-0.107-0.055-0.166v-28.403c0.002-0.080 0.038-0.156 0.103-0.212s0.151-0.087 0.241-0.086h19.629c0.090-0.001 0.177 0.030 0.241 0.086s0.101 0.132 0.103 0.212v28.403z"></path>
</symbol>
<symbol id="icon-Bookmark-saved" viewBox="0 0 32 32">
<path fill="#efcc00" style="fill: var(--color2, #efcc00)" d="M4.444 0h23.111v32l-11.556-6.857-11.556 6.857v-32z"></path>
</symbol>
<symbol id="icon-Bookmark-stroke" viewBox="0 0 32 32">
<path fill="#e5e5e5" style="fill: var(--color3, #e5e5e5)" d="M25.682 0h-19.365c-0.532-0.001-1.042 0.188-1.419 0.525s-0.589 0.795-0.591 1.272v28.403c-0.004 0.355 0.111 0.703 0.331 0.999s0.533 0.525 0.9 0.659c0.366 0.139 0.769 0.177 1.159 0.11s0.749-0.236 1.032-0.485l8.031-7.085c0.064-0.056 0.15-0.088 0.239-0.088s0.175 0.031 0.239 0.088l8.034 7.083c0.283 0.25 0.642 0.419 1.032 0.486s0.793 0.028 1.159-0.111c0.366-0.134 0.678-0.363 0.897-0.658s0.334-0.642 0.331-0.997v-28.403c-0.001-0.478-0.214-0.935-0.591-1.272s-0.887-0.526-1.419-0.525v0zM26.022 30.2c0.001 0.059-0.018 0.117-0.055 0.166s-0.090 0.086-0.151 0.107c-0.062 0.026-0.131 0.034-0.198 0.023s-0.128-0.041-0.175-0.085v0l-8.034-7.083c-0.377-0.33-0.883-0.515-1.41-0.515s-1.033 0.185-1.41 0.515l-8.031 7.083c-0.047 0.044-0.109 0.073-0.175 0.084s-0.136 0.003-0.198-0.022c-0.062-0.021-0.114-0.058-0.151-0.107s-0.056-0.107-0.055-0.166v-28.403c0.001-0.080 0.038-0.156 0.102-0.212s0.149-0.087 0.238-0.086h19.365c0.089-0.001 0.174 0.030 0.238 0.086s0.1 0.132 0.102 0.212v28.403z"></path>
</symbol>
<symbol id="icon-c" viewBox="0 0 32 32">
<path fill="#efcc00" style="fill: var(--color2, #efcc00)" d="M16 24.5c4.694 0 8.5-3.806 8.5-8.5s-3.806-8.5-8.5-8.5c-4.694 0-8.5 3.806-8.5 8.5s3.806 8.5 8.5 8.5z"></path>
<path fill="none" stroke="#efcc00" style="stroke: var(--color2, #efcc00)" stroke-linejoin="miter" stroke-linecap="round" stroke-miterlimit="10" stroke-width="0.8727" d="M16 2.5v3"></path>
<path fill="none" stroke="#efcc00" style="stroke: var(--color2, #efcc00)" stroke-linejoin="miter" stroke-linecap="round" stroke-miterlimit="10" stroke-width="0.8727" d="M16 26.5v3"></path>
<path fill="none" stroke="#efcc00" style="stroke: var(--color2, #efcc00)" stroke-linejoin="miter" stroke-linecap="round" stroke-miterlimit="10" stroke-width="0.8727" d="M29.5 16h-3"></path>
<path fill="none" stroke="#efcc00" style="stroke: var(--color2, #efcc00)" stroke-linejoin="miter" stroke-linecap="round" stroke-miterlimit="10" stroke-width="0.8727" d="M5.5 16h-3"></path>
<path fill="none" stroke="#efcc00" style="stroke: var(--color2, #efcc00)" stroke-linejoin="miter" stroke-linecap="round" stroke-miterlimit="10" stroke-width="0.8727" d="M25.545 6.455l-2.12 2.12"></path>
<path fill="none" stroke="#efcc00" style="stroke: var(--color2, #efcc00)" stroke-linejoin="miter" stroke-linecap="round" stroke-miterlimit="10" stroke-width="0.8727" d="M8.575 23.425l-2.12 2.12"></path>
<path fill="none" stroke="#efcc00" style="stroke: var(--color2, #efcc00)" stroke-linejoin="miter" stroke-linecap="round" stroke-miterlimit="10" stroke-width="0.8727" d="M25.545 25.545l-2.12-2.12"></path>
<path fill="none" stroke="#efcc00" style="stroke: var(--color2, #efcc00)" stroke-linejoin="miter" stroke-linecap="round" stroke-miterlimit="10" stroke-width="0.8727" d="M8.575 8.575l-2.12-2.12"></path>
</symbol>
<symbol id="icon-copyright" viewBox="0 0 32 32">
<path d="M14.953 3.203l-0.978 0.053-0.975 0.122-0.966 0.194-0.944 0.263-0.925 0.331-0.897 0.397-0.872 0.459-0.828 0.522-0.794 0.581-0.75 0.634-0.7 0.688-0.647 0.738-0.594 0.781-0.538 0.825-0.478 0.856-0.409 0.894-0.35 0.916-0.278 0.941-0.209 0.963-0.144 0.972-0.069 0.978v0.984l0.069 0.975 0.144 0.972 0.209 0.962 0.278 0.938 0.35 0.919 0.409 0.894 0.478 0.856 0.538 0.825 0.594 0.781 0.647 0.738 0.7 0.688 0.75 0.634 0.794 0.581 0.828 0.522 0.872 0.459 0.897 0.394 0.925 0.334 0.944 0.259 0.966 0.197 0.975 0.122 0.978 0.053 0.984-0.016 0.978-0.087 0.966-0.163 0.956-0.228 0.934-0.294 0.912-0.366 0.884-0.428 0.85-0.491 0.816-0.553 0.769-0.609 0.725-0.659 0.675-0.716 0.622-0.759 0.566-0.8 0.509-0.841 0.441-0.878 0.381-0.906 0.313-0.928 0.247-0.953 0.175-0.962 0.106-0.978 0.038-0.981-0.038-0.981-0.106-0.978-0.175-0.963-0.247-0.953-0.313-0.928-0.381-0.906-0.441-0.878-0.509-0.841-0.566-0.8-0.622-0.763-0.675-0.713-0.725-0.662-0.769-0.606-0.816-0.553-0.85-0.491-0.884-0.428-0.912-0.362-0.934-0.297-0.956-0.228-0.966-0.159-0.978-0.091-0.984-0.016zM15.431 4.803l0.928 0.053 0.922 0.128 0.909 0.194 0.894 0.269 0.866 0.334 0.844 0.4 0.803 0.466 0.769 0.528 0.725 0.584 0.675 0.638 0.625 0.691 0.569 0.734 0.512 0.775 0.45 0.816 0.384 0.847 0.319 0.878 0.253 0.897 0.178 0.912 0.106 0.925 0.038 0.928-0.038 0.928-0.106 0.925-0.178 0.912-0.253 0.897-0.319 0.875-0.384 0.847-0.45 0.816-0.512 0.778-0.569 0.738-0.625 0.688-0.675 0.637-0.725 0.584-0.769 0.528-0.803 0.466-0.844 0.4-0.866 0.334-0.894 0.269-0.909 0.197-0.922 0.125-0.928 0.053-0.928-0.016-0.928-0.094-0.916-0.163-0.9-0.231-0.881-0.3-0.856-0.369-0.822-0.431-0.787-0.5-0.747-0.553-0.7-0.613-0.653-0.666-0.597-0.712-0.541-0.756-0.481-0.797-0.419-0.831-0.35-0.862-0.284-0.887-0.216-0.906-0.144-0.919-0.072-0.925v-0.931l0.072-0.928 0.144-0.919 0.216-0.903 0.284-0.887 0.35-0.862 0.419-0.831 0.481-0.797 0.541-0.759 0.597-0.709 0.653-0.666 0.7-0.612 0.747-0.556 0.787-0.497 0.822-0.431 0.856-0.369 0.881-0.3 0.9-0.234 0.916-0.159 0.928-0.094 0.928-0.016zM15.2 9.6c-3.976 0-7.2 3.224-7.2 7.2s3.224 7.2 7.2 7.2c1.618-0.003 3.188-0.552 4.456-1.556l-0.988-1.247c-0.988 0.779-2.21 1.203-3.469 1.203-3.093 0-5.6-2.507-5.6-5.6s2.507-5.6 5.6-5.6c1.258 0.002 2.479 0.428 3.466 1.209l0.997-1.259c-1.271-1.004-2.843-1.55-4.462-1.55z"></path>
</symbol>
<symbol id="icon-degrees-celcius" viewBox="0 0 32 32">
<path fill="#fff" style="fill: var(--color4, #fff)" d="M21.101 25.728c-1.758 0-3.345-0.392-4.762-1.178-1.399-0.785-2.509-1.869-3.328-3.251-0.802-1.382-1.203-2.936-1.203-4.659s0.401-3.277 1.203-4.659c0.819-1.382 1.929-2.466 3.328-3.251 1.417-0.785 3.004-1.178 4.762-1.178 1.297 0 2.492 0.213 3.584 0.64 1.092 0.41 2.022 1.024 2.79 1.843l-0.819 0.845c-1.434-1.417-3.268-2.125-5.504-2.125-1.502 0-2.867 0.341-4.096 1.024s-2.193 1.63-2.893 2.842c-0.7 1.195-1.050 2.534-1.050 4.019s0.35 2.833 1.050 4.045c0.7 1.195 1.664 2.133 2.893 2.816s2.594 1.024 4.096 1.024c2.219 0 4.053-0.717 5.504-2.15l0.819 0.845c-0.768 0.819-1.707 1.442-2.816 1.869-1.092 0.427-2.278 0.64-3.558 0.64z"></path>
<path fill="none" stroke="#fff" style="stroke: var(--color4, #fff)" stroke-linejoin="miter" stroke-linecap="butt" stroke-miterlimit="4" stroke-width="0.96" d="M9.92 10.4c0 1.944-1.576 3.52-3.52 3.52s-3.52-1.576-3.52-3.52c0-1.944 1.576-3.52 3.52-3.52s3.52 1.576 3.52 3.52z"></path>
</symbol>
<symbol id="icon-h" viewBox="0 0 32 32">
<path fill="#c4c4c4" style="fill: var(--color5, #c4c4c4)" d="M27.5 18.815c0.828 0 1.5-0.672 1.5-1.5s-0.672-1.5-1.5-1.5c-0.828 0-1.5 0.672-1.5 1.5s0.672 1.5 1.5 1.5z"></path>
<path fill="none" stroke="#0d98ff" style="stroke: var(--color6, #0d98ff)" stroke-linejoin="round" stroke-linecap="round" stroke-miterlimit="4" stroke-width="0.8727" d="M2.75 24.25h26.5"></path>
<path fill="none" stroke="#0d98ff" style="stroke: var(--color6, #0d98ff)" stroke-linejoin="round" stroke-linecap="round" stroke-miterlimit="4" stroke-width="0.8727" d="M6.25 27.25h18"></path>
<path fill="none" stroke="#0baeff" style="stroke: var(--color7, #0baeff)" stroke-linejoin="round" stroke-linecap="round" stroke-miterlimit="4" stroke-width="0.8727" d="M12.25 7.75v13.085c-1.127-1.363-2.552-2.449-4.165-3.175"></path>
<path fill="none" stroke="#0baeff" style="stroke: var(--color7, #0baeff)" stroke-linejoin="round" stroke-linecap="round" stroke-miterlimit="4" stroke-width="0.8727" d="M19.25 9.75v11.085c0 0 1.75-3.165 5.165-3.175"></path>
<path fill="#c4c4c4" style="fill: var(--color5, #c4c4c4)" d="M4.5 18.315c0.828 0 1.5-0.672 1.5-1.5s-0.672-1.5-1.5-1.5c-0.828 0-1.5 0.672-1.5 1.5s0.672 1.5 1.5 1.5z"></path>
<path fill="none" stroke="#0baeff" style="stroke: var(--color7, #0baeff)" stroke-linejoin="round" stroke-linecap="round" stroke-miterlimit="4" stroke-width="0.8727" d="M15.75 4.75v6.5"></path>
<path fill="none" stroke="#0baeff" style="stroke: var(--color7, #0baeff)" stroke-linejoin="round" stroke-linecap="round" stroke-miterlimit="4" stroke-width="0.8727" d="M15.75 14.75v4.5"></path>
</symbol>
<symbol id="icon-hc" viewBox="0 0 32 32">
<path d="M11.83 5.968c1.591-0 3.152 0.433 4.516 1.254s2.476 1.999 3.219 3.406c0.913-0.534 1.937-0.85 2.992-0.923s2.113 0.097 3.091 0.499c0.978 0.402 1.851 1.024 2.549 1.818s1.204 1.739 1.478 2.76c0.274 1.022 0.308 2.092 0.101 3.13s-0.651 2.012-1.297 2.85c-0.646 0.837-1.476 1.515-2.427 1.979s-1.995 0.703-3.052 0.698l-11.195 0.030c-2.321 0-4.546-0.922-6.187-2.563s-2.563-3.867-2.563-6.187c0-2.321 0.922-4.546 2.563-6.187s3.867-2.563 6.187-2.563h0.025z"></path>
<path d="M29.649 18.415c1.022-3.657-1.115-7.45-4.771-8.471s-7.45 1.115-8.471 4.771c-1.022 3.657 1.115 7.45 4.771 8.471s7.45-1.115 8.471-4.771z"></path>
<path fill="none" stroke="#a5a9aa" style="stroke: var(--color8, #a5a9aa)" stroke-linejoin="miter" stroke-linecap="round" stroke-miterlimit="10" stroke-width="0.8727" d="M18.92 25.768h5.11"></path>
<path fill="none" stroke="#b9c1c6" style="stroke: var(--color9, #b9c1c6)" stroke-linejoin="miter" stroke-linecap="round" stroke-miterlimit="10" stroke-width="0.8727" d="M7.97 25.768h8.4"></path>
<path fill="none" stroke="#a5a9aa" style="stroke: var(--color8, #a5a9aa)" stroke-linejoin="miter" stroke-linecap="round" stroke-miterlimit="10" stroke-width="0.8727" d="M16.615 28.268h5.66"></path>
<path fill="none" stroke="#a5a9aa" style="stroke: var(--color8, #a5a9aa)" stroke-linejoin="miter" stroke-linecap="round" stroke-miterlimit="10" stroke-width="0.8727" d="M9.98 28.268h3.845"></path>
</symbol>
<symbol id="icon-hr" viewBox="0 0 32 32">
<path d="M11.83 7.95c1.591-0 3.153 0.433 4.516 1.254s2.476 1.999 3.219 3.406c0.913-0.534 1.937-0.85 2.992-0.923s2.113 0.097 3.091 0.499c0.978 0.402 1.851 1.024 2.549 1.818s1.204 1.739 1.478 2.76c0.274 1.022 0.308 2.092 0.101 3.129s-0.651 2.012-1.297 2.85c-0.646 0.837-1.476 1.515-2.427 1.979s-1.995 0.703-3.052 0.698l-11.195 0.030c-2.321 0-4.546-0.922-6.187-2.563s-2.563-3.867-2.563-6.187c0-2.321 0.922-4.546 2.563-6.187s3.867-2.563 6.187-2.563h0.025z"></path>
<path d="M29.648 20.394c1.022-3.657-1.115-7.45-4.772-8.471s-7.45 1.115-8.471 4.771c-1.022 3.657 1.115 7.45 4.771 8.471s7.45-1.115 8.472-4.771z"></path>
<path fill="none" stroke="#0baeff" style="stroke: var(--color7, #0baeff)" stroke-linejoin="miter" stroke-linecap="round" stroke-miterlimit="10" stroke-width="0.8727" d="M16.25 27.75v0.5"></path>
<path fill="none" stroke="#0baeff" style="stroke: var(--color7, #0baeff)" stroke-linejoin="miter" stroke-linecap="round" stroke-miterlimit="10" stroke-width="0.8727" d="M13.25 26.75v0.5"></path>
<path fill="none" stroke="#0baeff" style="stroke: var(--color7, #0baeff)" stroke-linejoin="miter" stroke-linecap="round" stroke-miterlimit="10" stroke-width="0.8727" d="M19.25 26.75v0.5"></path>
<path fill="none" stroke="#0baeff" style="stroke: var(--color7, #0baeff)" stroke-linejoin="miter" stroke-linecap="round" stroke-miterlimit="10" stroke-width="0.8727" d="M19.25 29.75v0.5"></path>
<path fill="none" stroke="#0baeff" style="stroke: var(--color7, #0baeff)" stroke-linejoin="miter" stroke-linecap="round" stroke-miterlimit="10" stroke-width="0.8727" d="M22 30.5v0.5"></path>
<path fill="none" stroke="#0baeff" style="stroke: var(--color7, #0baeff)" stroke-linejoin="miter" stroke-linecap="round" stroke-miterlimit="10" stroke-width="0.8727" d="M22 26.5v0.5"></path>
<path fill="none" stroke="#0baeff" style="stroke: var(--color7, #0baeff)" stroke-linejoin="miter" stroke-linecap="round" stroke-miterlimit="10" stroke-width="0.8727" d="M25 26.5v0.5"></path>
<path fill="none" stroke="#0baeff" style="stroke: var(--color7, #0baeff)" stroke-linejoin="miter" stroke-linecap="round" stroke-miterlimit="10" stroke-width="0.8727" d="M25 29v0.5"></path>
<path fill="none" stroke="#0baeff" style="stroke: var(--color7, #0baeff)" stroke-linejoin="miter" stroke-linecap="round" stroke-miterlimit="10" stroke-width="0.8727" d="M10 26.5v0.5"></path>
<path fill="none" stroke="#0baeff" style="stroke: var(--color7, #0baeff)" stroke-linejoin="miter" stroke-linecap="round" stroke-miterlimit="10" stroke-width="0.8727" d="M10 29v0.5"></path>
<path fill="none" stroke="#0baeff" style="stroke: var(--color7, #0baeff)" stroke-linejoin="miter" stroke-linecap="round" stroke-miterlimit="10" stroke-width="0.8727" d="M10 31.5v0.5"></path>
<path fill="none" stroke="#0baeff" style="stroke: var(--color7, #0baeff)" stroke-linejoin="miter" stroke-linecap="round" stroke-miterlimit="10" stroke-width="0.8727" d="M7 25.5v0.5"></path>
<path fill="none" stroke="#0baeff" style="stroke: var(--color7, #0baeff)" stroke-linejoin="miter" stroke-linecap="round" stroke-miterlimit="10" stroke-width="0.8727" d="M7 29v0.5"></path>
<path fill="none" stroke="#0baeff" style="stroke: var(--color7, #0baeff)" stroke-linejoin="miter" stroke-linecap="round" stroke-miterlimit="10" stroke-width="0.8727" d="M13.25 29.75v0.5"></path>
<path fill="none" stroke="#0baeff" style="stroke: var(--color7, #0baeff)" stroke-linejoin="miter" stroke-linecap="round" stroke-miterlimit="10" stroke-width="0.8727" d="M16.25 30.75v0.5"></path>
</symbol>
<symbol id="icon-lc" viewBox="0 0 32 32">
<path fill="#efcc00" style="fill: var(--color2, #efcc00)" d="M19.9 20.295c3.477 0 6.295-2.818 6.295-6.295s-2.818-6.295-6.295-6.295c-3.477 0-6.295 2.818-6.295 6.295s2.818 6.295 6.295 6.295z"></path>
<path fill="none" stroke="#efcc00" style="stroke: var(--color2, #efcc00)" stroke-linejoin="miter" stroke-linecap="round" stroke-miterlimit="10" stroke-width="0.8727" d="M19.9 4v2.22"></path>
<path fill="none" stroke="#efcc00" style="stroke: var(--color2, #efcc00)" stroke-linejoin="miter" stroke-linecap="round" stroke-miterlimit="10" stroke-width="0.8727" d="M19.9 21.78v2.22"></path>
<path fill="none" stroke="#efcc00" style="stroke: var(--color2, #efcc00)" stroke-linejoin="miter" stroke-linecap="round" stroke-miterlimit="10" stroke-width="0.8727" d="M9.9 14h2.225"></path>
<path fill="none" stroke="#efcc00" style="stroke: var(--color2, #efcc00)" stroke-linejoin="miter" stroke-linecap="round" stroke-miterlimit="10" stroke-width="0.8727" d="M27.68 14h2.22"></path>
<path fill="none" stroke="#efcc00" style="stroke: var(--color2, #efcc00)" stroke-linejoin="miter" stroke-linecap="round" stroke-miterlimit="10" stroke-width="0.8727" d="M12.83 6.93l1.57 1.57"></path>
<path fill="none" stroke="#efcc00" style="stroke: var(--color2, #efcc00)" stroke-linejoin="miter" stroke-linecap="round" stroke-miterlimit="10" stroke-width="0.8727" d="M25.4 19.5l1.57 1.57"></path>
<path fill="none" stroke="#efcc00" style="stroke: var(--color2, #efcc00)" stroke-linejoin="miter" stroke-linecap="round" stroke-miterlimit="10" stroke-width="0.8727" d="M12.83 21.070l1.57-1.57"></path>
<path fill="none" stroke="#efcc00" style="stroke: var(--color2, #efcc00)" stroke-linejoin="miter" stroke-linecap="round" stroke-miterlimit="10" stroke-width="0.8727" d="M25.4 8.5l1.57-1.57"></path>
<path fill="#000" style="fill: var(--color10, #000)" d="M11.75 10.95c1.594-0.003 3.158 0.429 4.524 1.25s2.481 2 3.226 3.41c0.912-0.533 1.935-0.849 2.989-0.923s2.111 0.096 3.088 0.497c0.978 0.401 1.85 1.021 2.549 1.814s1.206 1.735 1.481 2.755c0.276 1.020 0.312 2.090 0.107 3.126s-0.646 2.012-1.289 2.85-1.471 1.517-2.418 1.984c-0.948 0.467-1.991 0.709-3.047 0.707l-11.21 0.030c-2.321 0-4.546-0.922-6.187-2.563s-2.563-3.867-2.563-6.187c0-2.321 0.922-4.546 2.563-6.187s3.867-2.563 6.187-2.563v0z"></path>
<path fill="#000" style="fill: var(--color10, #000)" d="M29.566 23.394c1.022-3.657-1.115-7.45-4.771-8.471s-7.45 1.115-8.471 4.771c-1.022 3.657 1.115 7.45 4.771 8.471s7.45-1.115 8.471-4.771z"></path>
</symbol>
<symbol id="icon-Location-Icon" viewBox="0 0 32 32">
<path fill="#fff" style="fill: var(--color4, #fff)" opacity="0.24" d="M16 32c8.837 0 16-7.163 16-16s-7.163-16-16-16c-8.837 0-16 7.163-16 16s7.163 16 16 16z"></path>
<path fill="#f7f7f7" style="fill: var(--color11, #f7f7f7)" d="M9.231 13.538c0-3.399 2.757-6.154 6.154-6.154s6.154 2.755 6.154 6.154-6.154 10.917-6.154 11.133c0 0.216-6.154-7.734-6.154-11.133zM12.308 12.923c0 1.699 1.379 3.077 3.077 3.077s3.077-1.377 3.077-3.077c0-1.7-1.378-3.077-3.077-3.077s-3.077 1.377-3.077 3.077z"></path>
</symbol>
<symbol id="icon-lr" viewBox="0 0 32 32">
<path fill="none" stroke="#0baeff" style="stroke: var(--color7, #0baeff)" stroke-linejoin="miter" stroke-linecap="round" stroke-miterlimit="10" stroke-width="0.8727" d="M16.25 25.25v3.5"></path>
<path fill="none" stroke="#0baeff" style="stroke: var(--color7, #0baeff)" stroke-linejoin="miter" stroke-linecap="round" stroke-miterlimit="10" stroke-width="0.8727" d="M13.25 24.25v3.5"></path>
<path fill="none" stroke="#0baeff" style="stroke: var(--color7, #0baeff)" stroke-linejoin="miter" stroke-linecap="round" stroke-miterlimit="10" stroke-width="0.8727" d="M19.25 24.25v3.5"></path>
<path d="M11.83 4.95c1.591-0 3.152 0.433 4.516 1.254s2.476 1.999 3.219 3.406c0.913-0.534 1.937-0.85 2.992-0.923s2.113 0.097 3.091 0.499c0.978 0.402 1.851 1.024 2.549 1.818s1.204 1.739 1.478 2.76c0.274 1.021 0.308 2.092 0.101 3.129s-0.651 2.012-1.297 2.85c-0.646 0.837-1.476 1.515-2.427 1.979s-1.995 0.703-3.052 0.698l-11.195 0.030c-2.321 0-4.546-0.922-6.187-2.563s-2.563-3.867-2.563-6.187c0-2.321 0.922-4.546 2.563-6.187s3.867-2.563 6.187-2.563h0.025z"></path>
<path d="M29.649 17.397c1.022-3.657-1.115-7.45-4.772-8.471s-7.45 1.115-8.471 4.771c-1.022 3.657 1.115 7.45 4.771 8.471s7.45-1.115 8.471-4.771z"></path>
</symbol>
<symbol id="icon-rain-drops" viewBox="0 0 32 32">
<path fill="#f7f7f7" style="fill: var(--color11, #f7f7f7)" d="M10.22 31.814c0.687 0.124 1.435 0.186 2.122 0.186 0.25 0 0.499 0 0.686 0 2.621-0.124 4.993-1.238 6.803-3.095 0.25 0 0.437 0 0.686 0 3.869-0.248 7.24-2.476 8.925-6.066 1.685-3.652 1.311-7.923-1.123-11.079l-8.8-11.76-4.743 6.685-2.684-3.59-8.55 11.946c-2.184 3.095-2.621 6.932-1.186 10.46 1.373 3.342 4.306 5.694 7.864 6.313zM19.581 2.104l7.801 10.398c2.122 2.847 2.496 6.623 0.999 9.841-1.435 2.971-4.119 4.952-7.364 5.323 0.062-0.062 0.125-0.186 0.187-0.248 0.062-0.124 0.125-0.186 0.187-0.309 0.125-0.124 0.187-0.309 0.25-0.433s0.125-0.248 0.187-0.309c0.062-0.186 0.187-0.309 0.25-0.495 0.062-0.124 0.125-0.248 0.125-0.309 0.062-0.186 0.125-0.371 0.187-0.557 0.062-0.124 0.062-0.186 0.125-0.309 0.062-0.248 0.187-0.557 0.25-0.805 0-0.062 0-0.062 0-0.124 0.062-0.248 0.125-0.495 0.125-0.743 0-0.124 0-0.248 0.062-0.309 0-0.186 0.062-0.371 0.062-0.557 0-0.124 0-0.248 0-0.371 0-0.186 0-0.371 0-0.495s0-0.248 0-0.371c0-0.186 0-0.309-0.062-0.495 0-0.124 0-0.248-0.062-0.371 0-0.186-0.062-0.309-0.062-0.495 0-0.124-0.062-0.248-0.062-0.371-0.062-0.186-0.062-0.309-0.125-0.495-0.062-0.124-0.062-0.248-0.125-0.371-0.062-0.186-0.125-0.309-0.187-0.495-0.062-0.124-0.062-0.248-0.125-0.371-0.062-0.186-0.125-0.309-0.25-0.495-0.062-0.124-0.125-0.248-0.187-0.309-0.062-0.186-0.187-0.371-0.312-0.495-0.062-0.062-0.125-0.186-0.187-0.248-0.187-0.248-0.312-0.495-0.499-0.743l-5.305-7.056 4.119-6.004zM4.541 15.783l7.552-10.584 2.184 2.909 5.617 7.427c3.183 4.209 2.059 9.346-0.686 12.317-1.623 1.733-3.745 2.723-6.179 2.909-0.874 0.062-1.748 0-2.559-0.124-3.183-0.557-5.679-2.6-6.928-5.571-1.311-3.157-0.936-6.561 0.999-9.284z"></path>
</symbol>
<symbol id="icon-s" viewBox="0 0 32 32">
<path fill="#efcc00" style="fill: var(--color2, #efcc00)" d="M19.9 17.295c3.477 0 6.295-2.818 6.295-6.295s-2.818-6.295-6.295-6.295c-3.477 0-6.295 2.818-6.295 6.295s2.818 6.295 6.295 6.295z"></path>
<path fill="none" stroke="#efcc00" style="stroke: var(--color2, #efcc00)" stroke-linejoin="miter" stroke-linecap="round" stroke-miterlimit="10" stroke-width="0.8727" d="M19.9 1v2.22"></path>
<path fill="none" stroke="#efcc00" style="stroke: var(--color2, #efcc00)" stroke-linejoin="miter" stroke-linecap="round" stroke-miterlimit="10" stroke-width="0.8727" d="M19.9 18.78v2.22"></path>
<path fill="none" stroke="#efcc00" style="stroke: var(--color2, #efcc00)" stroke-linejoin="miter" stroke-linecap="round" stroke-miterlimit="10" stroke-width="0.8727" d="M9.9 11h2.225"></path>
<path fill="none" stroke="#efcc00" style="stroke: var(--color2, #efcc00)" stroke-linejoin="miter" stroke-linecap="round" stroke-miterlimit="10" stroke-width="0.8727" d="M27.68 11h2.22"></path>
<path fill="none" stroke="#efcc00" style="stroke: var(--color2, #efcc00)" stroke-linejoin="miter" stroke-linecap="round" stroke-miterlimit="10" stroke-width="0.8727" d="M12.83 3.93l1.57 1.57"></path>
<path fill="none" stroke="#efcc00" style="stroke: var(--color2, #efcc00)" stroke-linejoin="miter" stroke-linecap="round" stroke-miterlimit="10" stroke-width="0.8727" d="M25.4 16.5l1.57 1.57"></path>
<path fill="none" stroke="#efcc00" style="stroke: var(--color2, #efcc00)" stroke-linejoin="miter" stroke-linecap="round" stroke-miterlimit="10" stroke-width="0.8727" d="M12.83 18.070l1.57-1.57"></path>
<path fill="none" stroke="#efcc00" style="stroke: var(--color2, #efcc00)" stroke-linejoin="miter" stroke-linecap="round" stroke-miterlimit="10" stroke-width="0.8727" d="M25.4 5.5l1.57-1.57"></path>
<path fill="#000" style="fill: var(--color10, #000)" d="M11.75 7.95c1.594-0.003 3.158 0.429 4.524 1.25s2.481 2 3.226 3.41c0.912-0.533 1.935-0.849 2.989-0.923s2.111 0.096 3.088 0.497c0.978 0.401 1.85 1.021 2.549 1.814s1.206 1.735 1.481 2.755c0.276 1.020 0.312 2.090 0.107 3.126s-0.646 2.012-1.289 2.85-1.471 1.517-2.418 1.984c-0.948 0.467-1.991 0.709-3.047 0.707l-11.21 0.030c-2.321 0-4.546-0.922-6.187-2.563s-2.563-3.867-2.563-6.187c0-2.321 0.922-4.546 2.563-6.187s3.867-2.563 6.187-2.563v0z"></path>
<path fill="#000" style="fill: var(--color10, #000)" d="M29.567 20.392c1.022-3.657-1.114-7.45-4.771-8.471s-7.45 1.115-8.471 4.771c-1.022 3.657 1.115 7.45 4.771 8.471s7.45-1.115 8.471-4.771z"></path>
<path fill="none" stroke="#0baeff" style="stroke: var(--color7, #0baeff)" stroke-linejoin="miter" stroke-linecap="round" stroke-miterlimit="10" stroke-width="0.8727" d="M16.25 27.75v3.5"></path>
<path fill="none" stroke="#0baeff" style="stroke: var(--color7, #0baeff)" stroke-linejoin="miter" stroke-linecap="round" stroke-miterlimit="10" stroke-width="0.8727" d="M13.25 26.75v3.5"></path>
<path fill="none" stroke="#0baeff" style="stroke: var(--color7, #0baeff)" stroke-linejoin="miter" stroke-linecap="round" stroke-miterlimit="10" stroke-width="0.8727" d="M19.25 26.75v3.5"></path>
</symbol>
<symbol id="icon-Search-Place" viewBox="0 0 32 32">
<path fill="#f7f7f7" style="fill: var(--color11, #f7f7f7)" d="M12.118 24.483c-2.397 0-4.74-0.711-6.733-2.042s-3.546-3.224-4.463-5.439c-0.917-2.214-1.157-4.651-0.69-7.002s1.622-4.51 3.317-6.205 3.854-2.849 6.205-3.317c2.351-0.468 4.787-0.228 7.002 0.69s4.107 2.47 5.439 4.463c1.332 1.993 2.042 4.336 2.042 6.733 0 1.591-0.313 3.167-0.922 4.638s-1.502 2.806-2.627 3.931c-1.125 1.125-2.461 2.018-3.931 2.627s-3.046 0.922-4.637 0.922v0zM12.118 2.67c-1.917 0-3.792 0.569-5.386 1.634s-2.837 2.579-3.571 4.351c-0.734 1.771-0.926 3.721-0.552 5.601s1.297 3.608 2.653 4.964c1.356 1.356 3.083 2.279 4.964 2.653s3.83 0.182 5.601-0.552c1.771-0.734 3.286-1.976 4.351-3.571s1.634-3.469 1.634-5.386c0-2.571-1.021-5.037-2.84-6.855s-4.284-2.84-6.855-2.84v0z"></path>
<path fill="#f7f7f7" style="fill: var(--color11, #f7f7f7)" d="M30.296 31.754c-0.16 0.001-0.318-0.030-0.465-0.090s-0.282-0.149-0.395-0.262l-9.695-9.695c-0.113-0.113-0.203-0.247-0.264-0.395s-0.093-0.306-0.093-0.466c0-0.16 0.031-0.318 0.093-0.466s0.151-0.282 0.264-0.395c0.113-0.113 0.247-0.203 0.395-0.264s0.306-0.093 0.466-0.093 0.318 0.032 0.466 0.093c0.148 0.061 0.282 0.151 0.395 0.264l9.695 9.695c0.114 0.113 0.204 0.247 0.265 0.394s0.093 0.306 0.093 0.466c0 0.16-0.032 0.318-0.093 0.466s-0.152 0.282-0.265 0.394c-0.113 0.112-0.248 0.201-0.395 0.262s-0.306 0.091-0.465 0.090z"></path>
</symbol>
<symbol id="icon-sl" viewBox="0 0 32 32">
<path fill="#b3e5fc" style="fill: var(--color12, #b3e5fc)" d="M20.667 30c-0.116 0-0.23-0.030-0.331-0.088l-4.336-2.478-4.336 2.478c-0.076 0.045-0.16 0.074-0.248 0.086s-0.177 0.007-0.262-0.016c-0.085-0.023-0.165-0.062-0.235-0.116s-0.129-0.121-0.172-0.198-0.072-0.161-0.083-0.249c-0.011-0.088-0.004-0.177 0.020-0.262s0.064-0.164 0.119-0.234c0.055-0.069 0.123-0.127 0.2-0.17l4.667-2.667c0.101-0.058 0.215-0.088 0.331-0.088s0.23 0.030 0.331 0.088l4.667 2.667c0.128 0.073 0.228 0.186 0.285 0.322s0.067 0.286 0.029 0.428c-0.038 0.142-0.121 0.268-0.238 0.357s-0.26 0.138-0.407 0.138v0z"></path>
<path fill="#81d4fa" style="fill: var(--color13, #81d4fa)" d="M21.333 26.041c-0.145-0-0.287-0.048-0.402-0.135l-4.934-3.738-4.931 3.699c-0.104 0.078-0.228 0.124-0.358 0.132s-0.259-0.022-0.371-0.086c-0.113-0.064-0.204-0.16-0.264-0.275s-0.083-0.246-0.070-0.375l0.663-6.182-5.603-2.47c-0.118-0.052-0.219-0.138-0.289-0.246s-0.108-0.235-0.108-0.364 0.038-0.256 0.108-0.364c0.071-0.108 0.171-0.194 0.289-0.246l5.603-2.47-0.663-6.182c-0.014-0.129 0.010-0.259 0.070-0.375s0.151-0.211 0.264-0.275c0.113-0.064 0.242-0.094 0.371-0.086s0.254 0.054 0.358 0.132l4.934 3.7 4.934-3.7c0.104-0.078 0.228-0.124 0.358-0.132s0.259 0.022 0.372 0.086 0.204 0.16 0.264 0.275c0.059 0.116 0.083 0.246 0.070 0.375l-0.663 6.182 5.603 2.47c0.118 0.052 0.219 0.138 0.289 0.246s0.108 0.235 0.108 0.364-0.038 0.256-0.108 0.364c-0.070 0.108-0.171 0.194-0.289 0.246l-5.603 2.47 0.663 6.223c0.010 0.093 0 0.187-0.028 0.276s-0.076 0.171-0.138 0.241c-0.063 0.070-0.139 0.125-0.225 0.163s-0.178 0.058-0.272 0.057v0z"></path>
<path fill="#b3e5fc" style="fill: var(--color12, #b3e5fc)" d="M16 20.667c0.145-0 0.287 0.047 0.402 0.135l4.104 3.11-0.551-5.174c-0.015-0.141 0.015-0.282 0.086-0.405s0.178-0.219 0.308-0.276l4.665-2.057-4.665-2.057c-0.129-0.057-0.237-0.154-0.308-0.276s-0.101-0.264-0.085-0.405l0.551-5.143-4.107 3.080c-0.115 0.087-0.256 0.134-0.4 0.134s-0.285-0.047-0.4-0.134l-4.107-3.080 0.551 5.143c0.015 0.141-0.015 0.282-0.085 0.405s-0.179 0.219-0.308 0.276l-4.665 2.057 4.665 2.057c0.129 0.057 0.237 0.154 0.308 0.276s0.101 0.264 0.085 0.405l-0.551 5.143 4.107-3.080c0.115-0.087 0.256-0.134 0.4-0.133v0z"></path>
<path fill="#b3e5fc" style="fill: var(--color12, #b3e5fc)" d="M16 6c-0.116 0-0.23-0.030-0.331-0.088l-4.667-2.667c-0.077-0.043-0.145-0.1-0.2-0.17s-0.095-0.149-0.119-0.234c-0.024-0.085-0.030-0.174-0.020-0.262s0.039-0.172 0.083-0.249c0.044-0.077 0.102-0.144 0.172-0.198s0.15-0.093 0.235-0.116c0.085-0.023 0.174-0.028 0.262-0.016s0.172 0.041 0.248 0.086l4.336 2.478 4.336-2.478c0.076-0.045 0.16-0.074 0.248-0.086s0.176-0.007 0.262 0.016 0.165 0.062 0.235 0.116c0.070 0.054 0.129 0.121 0.172 0.198s0.072 0.161 0.083 0.249 0.004 0.177-0.020 0.262c-0.024 0.085-0.064 0.164-0.119 0.234s-0.123 0.127-0.2 0.17l-4.667 2.667c-0.101 0.058-0.215 0.088-0.331 0.088v0z"></path>
<path fill="#81d4fa" style="fill: var(--color13, #81d4fa)" d="M16 32c-0.088 0-0.174-0.017-0.255-0.051s-0.154-0.083-0.216-0.145c-0.062-0.062-0.111-0.135-0.145-0.216s-0.051-0.168-0.051-0.255v-30.667c0-0.177 0.070-0.346 0.195-0.471s0.295-0.195 0.471-0.195 0.346 0.070 0.471 0.195c0.125 0.125 0.195 0.295 0.195 0.471v30.667c0 0.088-0.017 0.174-0.051 0.255s-0.083 0.154-0.145 0.216c-0.062 0.062-0.135 0.111-0.216 0.145s-0.168 0.051-0.255 0.051v0z"></path>
<path fill="#b3e5fc" style="fill: var(--color12, #b3e5fc)" d="M25.293 27.375h-0.003c-0.177-0.001-0.346-0.072-0.471-0.198s-0.194-0.296-0.193-0.472l0.025-5.375c0.001-0.116 0.032-0.231 0.090-0.331s0.142-0.184 0.243-0.242l4.682-2.708c0.076-0.044 0.159-0.072 0.246-0.084s0.175-0.006 0.259 0.017c0.085 0.023 0.164 0.062 0.233 0.115s0.128 0.12 0.172 0.195c0.044 0.076 0.072 0.159 0.084 0.246s0.006 0.175-0.017 0.259c-0.023 0.085-0.062 0.164-0.115 0.233s-0.12 0.128-0.195 0.171l-4.35 2.517-0.023 4.993c-0.001 0.176-0.071 0.345-0.196 0.47s-0.294 0.194-0.47 0.194v0z"></path>
<path fill="#b3e5fc" style="fill: var(--color12, #b3e5fc)" d="M2 14.042c-0.147 0-0.289-0.048-0.406-0.138s-0.2-0.214-0.238-0.356c-0.038-0.142-0.028-0.292 0.028-0.427s0.155-0.249 0.282-0.322l4.35-2.517 0.023-4.993c0.001-0.176 0.071-0.345 0.196-0.47s0.294-0.194 0.47-0.194h0.003c0.177 0.001 0.346 0.072 0.471 0.198s0.194 0.295 0.193 0.472l-0.025 5.375c-0 0.116-0.032 0.231-0.090 0.331s-0.142 0.184-0.243 0.242l-4.682 2.708c-0.101 0.059-0.216 0.090-0.333 0.090v0z"></path>
<path fill="#81d4fa" style="fill: var(--color13, #81d4fa)" d="M29.393 24.333c-0.116 0-0.23-0.030-0.331-0.088l-26.787-15.333c-0.151-0.089-0.261-0.234-0.306-0.403s-0.021-0.35 0.066-0.502c0.087-0.152 0.23-0.264 0.399-0.311s0.349-0.026 0.503 0.059l26.786 15.333c0.128 0.073 0.227 0.186 0.284 0.322s0.067 0.286 0.029 0.428c-0.038 0.142-0.121 0.268-0.238 0.357s-0.259 0.138-0.406 0.138h-0z"></path>
<path fill="#b3e5fc" style="fill: var(--color12, #b3e5fc)" d="M30 14.042c-0.117 0-0.232-0.031-0.333-0.090l-4.682-2.708c-0.101-0.058-0.185-0.142-0.243-0.242s-0.090-0.215-0.090-0.331l-0.025-5.375c-0.001-0.177 0.069-0.347 0.193-0.472s0.294-0.197 0.471-0.198h0.003c0.176-0 0.345 0.070 0.47 0.194s0.196 0.293 0.196 0.47l0.023 4.993 4.35 2.517c0.127 0.073 0.226 0.187 0.282 0.322s0.066 0.286 0.028 0.427-0.122 0.267-0.238 0.356c-0.116 0.089-0.259 0.138-0.406 0.138v0z"></path>
<path fill="#b3e5fc" style="fill: var(--color12, #b3e5fc)" d="M6.707 27.375c-0.176 0-0.345-0.070-0.47-0.194s-0.196-0.293-0.196-0.47l-0.023-4.993-4.35-2.517c-0.076-0.044-0.142-0.102-0.196-0.171s-0.092-0.149-0.115-0.233-0.028-0.173-0.017-0.259c0.011-0.087 0.040-0.17 0.084-0.246s0.102-0.142 0.172-0.195c0.069-0.053 0.149-0.092 0.233-0.115s0.173-0.028 0.259-0.017c0.087 0.012 0.17 0.040 0.246 0.084l4.682 2.708c0.101 0.058 0.185 0.142 0.243 0.242s0.090 0.215 0.090 0.331l0.025 5.375c0.001 0.177-0.069 0.347-0.193 0.472s-0.294 0.197-0.471 0.198h-0.003z"></path>
<path fill="#81d4fa" style="fill: var(--color13, #81d4fa)" d="M2.607 24.333c-0.147-0-0.29-0.049-0.406-0.138s-0.2-0.215-0.238-0.357c-0.038-0.142-0.027-0.293 0.029-0.428s0.157-0.249 0.284-0.322l26.786-15.333c0.153-0.085 0.334-0.106 0.503-0.059s0.312 0.159 0.399 0.311c0.087 0.152 0.11 0.332 0.066 0.502s-0.155 0.314-0.306 0.403l-26.786 15.333c-0.101 0.058-0.215 0.088-0.331 0.088v0z"></path>
<path fill="#000" style="fill: var(--color10, #000)" d="M29.667 18.048l-4.351 2.517-3.198-1.831 4.818-2.124c0.118-0.052 0.219-0.138 0.289-0.246s0.108-0.235 0.108-0.364c0-0.129-0.038-0.256-0.108-0.364s-0.171-0.194-0.289-0.246l-4.818-2.124 3.198-1.831 4.351 2.517c0.101 0.059 0.216 0.090 0.333 0.090 0.147 0 0.289-0.048 0.406-0.138s0.2-0.214 0.238-0.356c0.038-0.142 0.028-0.292-0.028-0.427s-0.155-0.249-0.282-0.322l-3.679-2.129 3.070-1.757c0.151-0.089 0.261-0.234 0.306-0.403s0.021-0.35-0.066-0.502c-0.087-0.152-0.23-0.264-0.399-0.311s-0.349-0.026-0.503 0.059l-3.083 1.765-0.020-4.231c-0.001-0.176-0.071-0.345-0.196-0.47s-0.294-0.194-0.47-0.194h-0.003c-0.177 0.001-0.346 0.072-0.471 0.198s-0.194 0.295-0.193 0.472l0.023 4.986-3.231 1.85 0.578-5.393c0.014-0.129-0.010-0.259-0.070-0.375s-0.151-0.211-0.264-0.275-0.242-0.094-0.372-0.086c-0.13 0.008-0.254 0.054-0.358 0.132l-4.267 3.2v-3.613l4.331-2.475c0.077-0.043 0.145-0.1 0.2-0.17s0.095-0.149 0.119-0.234c0.024-0.085 0.030-0.174 0.020-0.262s-0.039-0.172-0.083-0.249c-0.044-0.077-0.102-0.144-0.172-0.198s-0.15-0.093-0.235-0.116c-0.085-0.023-0.174-0.028-0.262-0.016s-0.172 0.041-0.248 0.086l-3.669 2.097v-3.518c0-0.177-0.070-0.346-0.195-0.471s-0.295-0.195-0.471-0.195c-0.177 0-0.346 0.070-0.471 0.195s-0.195 0.295-0.195 0.471v3.518l-3.669-2.097c-0.076-0.045-0.16-0.074-0.248-0.086s-0.176-0.007-0.262 0.016-0.165 0.062-0.235 0.116c-0.070 0.054-0.129 0.121-0.172 0.198s-0.072 0.161-0.083 0.249-0.004 0.177 0.020 0.262c0.024 0.085 0.064 0.164 0.119 0.234s0.123 0.127 0.2 0.17l4.331 2.475v3.613l-4.267-3.2c-0.104-0.078-0.228-0.124-0.358-0.132s-0.259 0.022-0.372 0.086-0.204 0.16-0.264 0.275c-0.059 0.116-0.083 0.246-0.070 0.375l0.578 5.393-3.231-1.85 0.023-4.986c0.001-0.177-0.069-0.347-0.193-0.472s-0.294-0.197-0.471-0.198h-0.003c-0.176-0-0.345 0.070-0.47 0.194s-0.196 0.293-0.196 0.47l-0.020 4.231-3.083-1.765c-0.153-0.085-0.334-0.106-0.503-0.059s-0.312 0.159-0.399 0.311c-0.087 0.152-0.11 0.332-0.066 0.502s0.155 0.314 0.306 0.403l3.070 1.757-3.679 2.129c-0.127 0.073-0.226 0.187-0.282 0.322s-0.066 0.286-0.028 0.427 0.122 0.267 0.238 0.356c0.116 0.089 0.259 0.138 0.406 0.138 0.117 0 0.232-0.031 0.333-0.090l4.351-2.517 3.198 1.831-4.818 2.124c-0.118 0.052-0.219 0.138-0.289 0.246s-0.108 0.235-0.108 0.364c0 0.129 0.038 0.256 0.108 0.364s0.171 0.194 0.289 0.246l4.818 2.124-3.198 1.831-4.351-2.517c-0.076-0.044-0.159-0.072-0.246-0.084s-0.175-0.006-0.259 0.017c-0.085 0.023-0.164 0.062-0.233 0.115s-0.128 0.12-0.172 0.195c-0.044 0.076-0.072 0.159-0.084 0.246s-0.006 0.175 0.017 0.259c0.023 0.085 0.062 0.164 0.115 0.233s0.12 0.128 0.196 0.171l3.679 2.129-3.070 1.757c-0.077 0.043-0.145 0.1-0.2 0.17s-0.095 0.149-0.119 0.234c-0.024 0.085-0.031 0.174-0.020 0.262s0.039 0.172 0.083 0.249c0.044 0.077 0.102 0.144 0.172 0.198s0.15 0.093 0.235 0.116c0.085 0.023 0.174 0.028 0.262 0.016s0.172-0.041 0.248-0.086l3.083-1.765 0.020 4.231c0.001 0.176 0.071 0.345 0.196 0.47s0.294 0.194 0.47 0.194h0.003c0.177-0.001 0.346-0.072 0.471-0.198s0.194-0.296 0.193-0.472l-0.023-4.986 3.231-1.85-0.578 5.393c-0.014 0.129 0.010 0.259 0.070 0.375s0.151 0.211 0.264 0.275c0.113 0.064 0.242 0.094 0.372 0.086s0.254-0.054 0.358-0.132l4.267-3.2v3.614l-4.331 2.475c-0.077 0.043-0.145 0.1-0.2 0.17s-0.095 0.149-0.119 0.234c-0.024 0.085-0.030 0.174-0.020 0.262s0.039 0.172 0.083 0.249c0.044 0.077 0.102 0.144 0.172 0.198s0.15 0.093 0.235 0.116c0.085 0.023 0.174 0.028 0.262 0.016s0.172-0.041 0.248-0.086l3.669-2.097v3.518c0 0.177 0.070 0.346 0.195 0.471s0.295 0.195 0.471 0.195c0.177 0 0.346-0.070 0.471-0.195s0.195-0.295 0.195-0.471v-3.518l3.669 2.097c0.101 0.058 0.215 0.088 0.331 0.088 0.147 0 0.29-0.048 0.407-0.138s0.2-0.215 0.238-0.357c0.038-0.142 0.027-0.293-0.029-0.428s-0.157-0.249-0.285-0.322l-4.331-2.475v-3.605l4.264 3.231c0.104 0.079 0.228 0.125 0.358 0.134s0.259-0.021 0.373-0.085c0.113-0.064 0.205-0.16 0.265-0.276s0.084-0.246 0.070-0.376l-0.579-5.434 3.232 1.85-0.023 4.986c-0.001 0.177 0.069 0.347 0.193 0.472s0.294 0.197 0.471 0.198h0.003c0.176 0 0.345-0.070 0.47-0.194s0.196-0.293 0.196-0.47l0.020-4.231 3.083 1.765c0.153 0.085 0.334 0.106 0.503 0.059s0.312-0.159 0.399-0.311c0.087-0.152 0.11-0.332 0.066-0.502s-0.155-0.314-0.306-0.403l-3.070-1.757 3.679-2.129c0.076-0.044 0.142-0.102 0.195-0.171s0.092-0.149 0.115-0.233 0.028-0.173 0.017-0.259c-0.011-0.087-0.040-0.17-0.084-0.246s-0.102-0.142-0.172-0.195c-0.069-0.053-0.149-0.092-0.233-0.115s-0.173-0.028-0.259-0.017c-0.087 0.012-0.17 0.040-0.246 0.084v0z"></path>
</symbol>
<symbol id="icon-sn" viewBox="0 0 32 32">
<path fill="#000" style="fill: var(--color10, #000)" d="M11.83 4.95c1.591-0 3.152 0.433 4.516 1.254s2.476 1.999 3.219 3.406c0.913-0.534 1.937-0.85 2.992-0.923s2.113 0.097 3.091 0.499c0.978 0.402 1.851 1.024 2.549 1.818s1.205 1.739 1.478 2.76c0.274 1.022 0.308 2.092 0.101 3.129s-0.651 2.012-1.297 2.85c-0.646 0.837-1.476 1.515-2.427 1.979s-1.995 0.703-3.052 0.698l-11.195 0.030c-2.321 0-4.546-0.922-6.187-2.563s-2.563-3.867-2.563-6.187c0-2.321 0.922-4.546 2.563-6.187s3.867-2.563 6.187-2.563h0.025z"></path>
<path fill="#000" style="fill: var(--color10, #000)" d="M29.649 17.397c1.022-3.657-1.115-7.45-4.772-8.471s-7.45 1.115-8.471 4.771c-1.022 3.657 1.115 7.45 4.771 8.471s7.45-1.115 8.471-4.771z"></path>
<path fill="none" stroke="#9c9fa0" style="stroke: var(--color14, #9c9fa0)" stroke-linejoin="miter" stroke-linecap="round" stroke-miterlimit="10" stroke-width="0.5818" d="M16.065 13.55v5.065"></path>
<path fill="none" stroke="#9c9fa0" style="stroke: var(--color14, #9c9fa0)" stroke-linejoin="miter" stroke-linecap="round" stroke-miterlimit="10" stroke-width="0.5818" d="M16.65 12.895l-0.585 0.735-0.59-0.735"></path>
<path fill="none" stroke="#9c9fa0" style="stroke: var(--color14, #9c9fa0)" stroke-linejoin="miter" stroke-linecap="round" stroke-miterlimit="10" stroke-width="0.5818" d="M15.475 19.275l0.59-0.735 0.585 0.735"></path>
<path fill="none" stroke="#9c9fa0" style="stroke: var(--color14, #9c9fa0)" stroke-linejoin="miter" stroke-linecap="round" stroke-miterlimit="10" stroke-width="0.5818" d="M18.255 14.815l-4.385 2.535"></path>
<path fill="none" stroke="#9c9fa0" style="stroke: var(--color14, #9c9fa0)" stroke-linejoin="miter" stroke-linecap="round" stroke-miterlimit="10" stroke-width="0.5818" d="M19.12 15l-0.93-0.145 0.34-0.875"></path>
<path fill="none" stroke="#9c9fa0" style="stroke: var(--color14, #9c9fa0)" stroke-linejoin="miter" stroke-linecap="round" stroke-miterlimit="10" stroke-width="0.5818" d="M13.005 17.17l0.93 0.14-0.34 0.88"></path>
<path fill="none" stroke="#9c9fa0" style="stroke: var(--color14, #9c9fa0)" stroke-linejoin="miter" stroke-linecap="round" stroke-miterlimit="10" stroke-width="0.5818" d="M18.255 17.35l-4.385-2.535"></path>
<path fill="none" stroke="#9c9fa0" style="stroke: var(--color14, #9c9fa0)" stroke-linejoin="miter" stroke-linecap="round" stroke-miterlimit="10" stroke-width="0.5818" d="M18.53 18.19l-0.34-0.88 0.93-0.14"></path>
<path fill="none" stroke="#9c9fa0" style="stroke: var(--color14, #9c9fa0)" stroke-linejoin="miter" stroke-linecap="round" stroke-miterlimit="10" stroke-width="0.5818" d="M13.595 13.98l0.34 0.875-0.93 0.145"></path>
<path fill="#c4c4c4" style="fill: var(--color5, #c4c4c4)" d="M13.25 27.315c0.552 0 1-0.448 1-1s-0.448-1-1-1c-0.552 0-1 0.448-1 1s0.448 1 1 1z"></path>
<path fill="#e0e0e0" style="fill: var(--color15, #e0e0e0)" d="M18.25 28.565c0.414 0 0.75-0.336 0.75-0.75s-0.336-0.75-0.75-0.75c-0.414 0-0.75 0.336-0.75 0.75s0.336 0.75 0.75 0.75z"></path>
<path fill="#e0e0e0" style="fill: var(--color15, #e0e0e0)" d="M9.25 25.065c0.414 0 0.75-0.336 0.75-0.75s-0.336-0.75-0.75-0.75c-0.414 0-0.75 0.336-0.75 0.75s0.336 0.75 0.75 0.75z"></path>
<path fill="#fff" style="fill: var(--color4, #fff)" d="M16.25 24.815c0.276 0 0.5-0.224 0.5-0.5s-0.224-0.5-0.5-0.5c-0.276 0-0.5 0.224-0.5 0.5s0.224 0.5 0.5 0.5z"></path>
<path fill="#fff" style="fill: var(--color4, #fff)" d="M23.25 28.315c0.276 0 0.5-0.224 0.5-0.5s-0.224-0.5-0.5-0.5c-0.276 0-0.5 0.224-0.5 0.5s0.224 0.5 0.5 0.5z"></path>
<path fill="#fff" style="fill: var(--color4, #fff)" d="M8.75 28.315c0.276 0 0.5-0.224 0.5-0.5s-0.224-0.5-0.5-0.5c-0.276 0-0.5 0.224-0.5 0.5s0.224 0.5 0.5 0.5z"></path>
<path fill="#c4c4c4" style="fill: var(--color5, #c4c4c4)" d="M21.25 25.815c0.552 0 1-0.448 1-1s-0.448-1-1-1c-0.552 0-1 0.448-1 1s0.448 1 1 1z"></path>
</symbol>
<symbol id="icon-t" viewBox="0 0 32 32">
<path fill="#000" style="fill: var(--color10, #000)" d="M11.83 4.95c1.591-0 3.152 0.433 4.516 1.254s2.476 1.999 3.219 3.406c0.913-0.534 1.937-0.85 2.992-0.923s2.113 0.097 3.091 0.499c0.978 0.402 1.851 1.024 2.549 1.818s1.204 1.739 1.478 2.76c0.274 1.022 0.308 2.092 0.101 3.129s-0.651 2.012-1.297 2.85c-0.646 0.837-1.476 1.515-2.427 1.979s-1.995 0.703-3.052 0.698l-11.195 0.030c-2.321 0-4.546-0.922-6.187-2.563s-2.563-3.867-2.563-6.187c0-2.321 0.922-4.546 2.563-6.187s3.867-2.563 6.187-2.563h0.025z"></path>
<path fill="#000" style="fill: var(--color10, #000)" d="M29.649 17.397c1.022-3.657-1.115-7.45-4.772-8.471s-7.45 1.115-8.471 4.771c-1.022 3.657 1.115 7.45 4.771 8.471s7.45-1.115 8.471-4.771z"></path>
<path fill="#efcc00" style="fill: var(--color2, #efcc00)" d="M16.565 18.175l-1.065 6.125h2.13l-1.065 4.525 5.060-6.39h-2.395l2.13-4.26h-4.795z"></path>
<path fill="#0baeff" style="fill: var(--color7, #0baeff)" d="M14.425 26.64c0 0.493-0.196 0.966-0.545 1.315s-0.822 0.545-1.315 0.545c-0.493 0-0.966-0.196-1.315-0.545s-0.545-0.822-0.545-1.315c0-1.63 1.5-3.14 1.86-3.14s1.86 1.5 1.86 3.14z"></path>
</symbol>
<symbol id="icon-windmill" viewBox="0 0 32 32">
<path fill="#f7f7f7" style="fill: var(--color11, #f7f7f7)" d="M19.26 12.559c2.555 1.815 8.702 6.28 8.306 6.967-0.396 0.686-7.304-2.389-10.166-3.7l0.893 15.174c0 0-0.5 1-2 1s-2-1-2-1l0.893-15.174c-2.862 1.311-9.77 4.385-10.166 3.7-0.397-0.687 5.75-5.152 8.306-6.967-0.021 0.144-0.032 0.291-0.032 0.441 0 1.657 1.343 3 3 3s3-1.343 3-3c0-0.15-0.011-0.297-0.032-0.441zM18.171 10.662c-0.295-3.129-1.087-10.662-1.879-10.662s-1.585 7.532-1.88 10.662c0.514-0.414 1.168-0.662 1.88-0.662s1.365 0.248 1.879 0.662zM16.292 15c1.105 0 2-0.895 2-2s-0.895-2-2-2c-1.105 0-2 0.895-2 2s0.895 2 2 2z"></path>
</symbol>
<symbol id="icon-error_outline" viewBox="0 0 24 24">
<path d="M12 20.016q3.281 0 5.648-2.367t2.367-5.648-2.367-5.648-5.648-2.367-5.648 2.367-2.367 5.648 2.367 5.648 5.648 2.367zM12 2.016q4.125 0 7.055 2.93t2.93 7.055-2.93 7.055-7.055 2.93-7.055-2.93-2.93-7.055 2.93-7.055 7.055-2.93zM11.016 6.984h1.969v6h-1.969v-6zM11.016 15h1.969v2.016h-1.969v-2.016z"></path>
</symbol>
</defs>
</svg>
