<!-- Generated by IcoMoon.io -->
<svg version="1.1" xmlns="http://www.w3.org/2000/svg" width="32" height="32" viewBox="0 0 32 32">
<title>Bookmark-save</title>
<path fill="#efcc00" d="M25.814 0h-19.629c-0.539-0.001-1.056 0.188-1.438 0.525s-0.597 0.795-0.599 1.272v28.403c-0.004 0.355 0.113 0.703 0.335 0.999s0.54 0.525 0.912 0.659c0.371 0.139 0.779 0.177 1.175 0.11s0.759-0.236 1.046-0.485l8.141-7.085c0.065-0.056 0.152-0.088 0.243-0.088s0.178 0.031 0.243 0.088l8.144 7.082c0.287 0.25 0.651 0.419 1.046 0.486s0.804 0.028 1.175-0.111c0.371-0.134 0.687-0.363 0.909-0.658s0.339-0.642 0.335-0.997v-28.403c-0.002-0.478-0.217-0.935-0.599-1.272s-0.899-0.526-1.438-0.525v0zM26.159 30.2c0.001 0.059-0.018 0.117-0.055 0.166s-0.091 0.086-0.153 0.107c-0.063 0.026-0.133 0.034-0.2 0.023s-0.13-0.041-0.178-0.085v0l-8.144-7.083c-0.383-0.33-0.895-0.515-1.429-0.515s-1.047 0.185-1.429 0.515l-8.141 7.083c-0.048 0.044-0.11 0.073-0.178 0.084s-0.138 0.003-0.2-0.022c-0.062-0.021-0.116-0.058-0.153-0.107s-0.057-0.107-0.055-0.166v-28.403c0.002-0.080 0.038-0.156 0.103-0.212s0.151-0.087 0.241-0.086h19.629c0.090-0.001 0.177 0.030 0.241 0.086s0.101 0.132 0.103 0.212v28.403z"></path>
</svg>
