<!-- Generated by IcoMoon.io -->
<svg version="1.1" xmlns="http://www.w3.org/2000/svg" width="32" height="32" viewBox="0 0 32 32">
<title>copyright</title>
<path d="M14.953 3.203l-0.978 0.053-0.975 0.122-0.966 0.194-0.944 0.263-0.925 0.331-0.897 0.397-0.872 0.459-0.828 0.522-0.794 0.581-0.75 0.634-0.7 0.688-0.647 0.738-0.594 0.781-0.538 0.825-0.478 0.856-0.409 0.894-0.35 0.916-0.278 0.941-0.209 0.963-0.144 0.972-0.069 0.978v0.984l0.069 0.975 0.144 0.972 0.209 0.962 0.278 0.938 0.35 0.919 0.409 0.894 0.478 0.856 0.538 0.825 0.594 0.781 0.647 0.738 0.7 0.688 0.75 0.634 0.794 0.581 0.828 0.522 0.872 0.459 0.897 0.394 0.925 0.334 0.944 0.259 0.966 0.197 0.975 0.122 0.978 0.053 0.984-0.016 0.978-0.087 0.966-0.163 0.956-0.228 0.934-0.294 0.912-0.366 0.884-0.428 0.85-0.491 0.816-0.553 0.769-0.609 0.725-0.659 0.675-0.716 0.622-0.759 0.566-0.8 0.509-0.841 0.441-0.878 0.381-0.906 0.313-0.928 0.247-0.953 0.175-0.962 0.106-0.978 0.038-0.981-0.038-0.981-0.106-0.978-0.175-0.963-0.247-0.953-0.313-0.928-0.381-0.906-0.441-0.878-0.509-0.841-0.566-0.8-0.622-0.763-0.675-0.713-0.725-0.662-0.769-0.606-0.816-0.553-0.85-0.491-0.884-0.428-0.912-0.362-0.934-0.297-0.956-0.228-0.966-0.159-0.978-0.091-0.984-0.016zM15.431 4.803l0.928 0.053 0.922 0.128 0.909 0.194 0.894 0.269 0.866 0.334 0.844 0.4 0.803 0.466 0.769 0.528 0.725 0.584 0.675 0.638 0.625 0.691 0.569 0.734 0.512 0.775 0.45 0.816 0.384 0.847 0.319 0.878 0.253 0.897 0.178 0.912 0.106 0.925 0.038 0.928-0.038 0.928-0.106 0.925-0.178 0.912-0.253 0.897-0.319 0.875-0.384 0.847-0.45 0.816-0.512 0.778-0.569 0.738-0.625 0.688-0.675 0.637-0.725 0.584-0.769 0.528-0.803 0.466-0.844 0.4-0.866 0.334-0.894 0.269-0.909 0.197-0.922 0.125-0.928 0.053-0.928-0.016-0.928-0.094-0.916-0.163-0.9-0.231-0.881-0.3-0.856-0.369-0.822-0.431-0.787-0.5-0.747-0.553-0.7-0.613-0.653-0.666-0.597-0.712-0.541-0.756-0.481-0.797-0.419-0.831-0.35-0.862-0.284-0.887-0.216-0.906-0.144-0.919-0.072-0.925v-0.931l0.072-0.928 0.144-0.919 0.216-0.903 0.284-0.887 0.35-0.862 0.419-0.831 0.481-0.797 0.541-0.759 0.597-0.709 0.653-0.666 0.7-0.612 0.747-0.556 0.787-0.497 0.822-0.431 0.856-0.369 0.881-0.3 0.9-0.234 0.916-0.159 0.928-0.094 0.928-0.016zM15.2 9.6c-3.976 0-7.2 3.224-7.2 7.2s3.224 7.2 7.2 7.2c1.618-0.003 3.188-0.552 4.456-1.556l-0.988-1.247c-0.988 0.779-2.21 1.203-3.469 1.203-3.093 0-5.6-2.507-5.6-5.6s2.507-5.6 5.6-5.6c1.258 0.002 2.479 0.428 3.466 1.209l0.997-1.259c-1.271-1.004-2.843-1.55-4.462-1.55z"></path>
</svg>
