<!-- Generated by IcoMoon.io -->
<svg version="1.1" xmlns="http://www.w3.org/2000/svg" width="32" height="32" viewBox="0 0 32 32">
<title>degrees-celcius</title>
<path fill="#fff" d="M21.101 25.728c-1.758 0-3.345-0.392-4.762-1.178-1.399-0.785-2.509-1.869-3.328-3.251-0.802-1.382-1.203-2.936-1.203-4.659s0.401-3.277 1.203-4.659c0.819-1.382 1.929-2.466 3.328-3.251 1.417-0.785 3.004-1.178 4.762-1.178 1.297 0 2.492 0.213 3.584 0.64 1.092 0.41 2.022 1.024 2.79 1.843l-0.819 0.845c-1.434-1.417-3.268-2.125-5.504-2.125-1.502 0-2.867 0.341-4.096 1.024s-2.193 1.63-2.893 2.842c-0.7 1.195-1.050 2.534-1.050 4.019s0.35 2.833 1.050 4.045c0.7 1.195 1.664 2.133 2.893 2.816s2.594 1.024 4.096 1.024c2.219 0 4.053-0.717 5.504-2.15l0.819 0.845c-0.768 0.819-1.707 1.442-2.816 1.869-1.092 0.427-2.278 0.64-3.558 0.64z"></path>
<path fill="none" stroke="#fff" stroke-linejoin="miter" stroke-linecap="butt" stroke-miterlimit="4" stroke-width="0.96" d="M9.92 10.4c0 1.944-1.576 3.52-3.52 3.52s-3.52-1.576-3.52-3.52c0-1.944 1.576-3.52 3.52-3.52s3.52 1.576 3.52 3.52z"></path>
</svg>
