<!-- Generated by IcoMoon.io -->
<svg version="1.1" xmlns="http://www.w3.org/2000/svg" width="32" height="32" viewBox="0 0 32 32">
<title>h</title>
<path fill="#c4c4c4" d="M27.5 18.815c0.828 0 1.5-0.672 1.5-1.5s-0.672-1.5-1.5-1.5c-0.828 0-1.5 0.672-1.5 1.5s0.672 1.5 1.5 1.5z"></path>
<path fill="none" stroke="#0d98ff" stroke-linejoin="round" stroke-linecap="round" stroke-miterlimit="4" stroke-width="0.8727" d="M2.75 24.25h26.5"></path>
<path fill="none" stroke="#0d98ff" stroke-linejoin="round" stroke-linecap="round" stroke-miterlimit="4" stroke-width="0.8727" d="M6.25 27.25h18"></path>
<path fill="none" stroke="#0baeff" stroke-linejoin="round" stroke-linecap="round" stroke-miterlimit="4" stroke-width="0.8727" d="M12.25 7.75v13.085c-1.127-1.363-2.552-2.449-4.165-3.175"></path>
<path fill="none" stroke="#0baeff" stroke-linejoin="round" stroke-linecap="round" stroke-miterlimit="4" stroke-width="0.8727" d="M19.25 9.75v11.085c0 0 1.75-3.165 5.165-3.175"></path>
<path fill="#c4c4c4" d="M4.5 18.315c0.828 0 1.5-0.672 1.5-1.5s-0.672-1.5-1.5-1.5c-0.828 0-1.5 0.672-1.5 1.5s0.672 1.5 1.5 1.5z"></path>
<path fill="none" stroke="#0baeff" stroke-linejoin="round" stroke-linecap="round" stroke-miterlimit="4" stroke-width="0.8727" d="M15.75 4.75v6.5"></path>
<path fill="none" stroke="#0baeff" stroke-linejoin="round" stroke-linecap="round" stroke-miterlimit="4" stroke-width="0.8727" d="M15.75 14.75v4.5"></path>
</svg>
