<!-- Generated by IcoMoon.io -->
<svg version="1.1" xmlns="http://www.w3.org/2000/svg" width="32" height="32" viewBox="0 0 32 32">
<title>lc</title>
<path fill="#efcc00" d="M19.9 20.295c3.477 0 6.295-2.818 6.295-6.295s-2.818-6.295-6.295-6.295c-3.477 0-6.295 2.818-6.295 6.295s2.818 6.295 6.295 6.295z"></path>
<path fill="none" stroke="#efcc00" stroke-linejoin="miter" stroke-linecap="round" stroke-miterlimit="10" stroke-width="0.8727" d="M19.9 4v2.22"></path>
<path fill="none" stroke="#efcc00" stroke-linejoin="miter" stroke-linecap="round" stroke-miterlimit="10" stroke-width="0.8727" d="M19.9 21.78v2.22"></path>
<path fill="none" stroke="#efcc00" stroke-linejoin="miter" stroke-linecap="round" stroke-miterlimit="10" stroke-width="0.8727" d="M9.9 14h2.225"></path>
<path fill="none" stroke="#efcc00" stroke-linejoin="miter" stroke-linecap="round" stroke-miterlimit="10" stroke-width="0.8727" d="M27.68 14h2.22"></path>
<path fill="none" stroke="#efcc00" stroke-linejoin="miter" stroke-linecap="round" stroke-miterlimit="10" stroke-width="0.8727" d="M12.83 6.93l1.57 1.57"></path>
<path fill="none" stroke="#efcc00" stroke-linejoin="miter" stroke-linecap="round" stroke-miterlimit="10" stroke-width="0.8727" d="M25.4 19.5l1.57 1.57"></path>
<path fill="none" stroke="#efcc00" stroke-linejoin="miter" stroke-linecap="round" stroke-miterlimit="10" stroke-width="0.8727" d="M12.83 21.070l1.57-1.57"></path>
<path fill="none" stroke="#efcc00" stroke-linejoin="miter" stroke-linecap="round" stroke-miterlimit="10" stroke-width="0.8727" d="M25.4 8.5l1.57-1.57"></path>
<path fill="#fff" d="M11.75 10.95c1.594-0.003 3.158 0.429 4.524 1.25s2.481 2 3.226 3.41c0.912-0.533 1.935-0.849 2.989-0.923s2.111 0.096 3.088 0.497c0.978 0.401 1.85 1.021 2.549 1.814s1.206 1.735 1.481 2.755c0.276 1.020 0.312 2.090 0.107 3.126s-0.646 2.012-1.289 2.85c-0.643 0.838-1.471 1.517-2.418 1.984-0.948 0.467-1.991 0.709-3.047 0.707l-11.21 0.030c-2.321 0-4.546-0.922-6.187-2.563s-2.563-3.867-2.563-6.187c0-2.321 0.922-4.546 2.563-6.187s3.867-2.563 6.187-2.563v0z"></path>
<path fill="#fff" d="M29.566 23.394c1.022-3.657-1.115-7.45-4.771-8.471s-7.45 1.115-8.471 4.771c-1.022 3.657 1.115 7.45 4.771 8.471s7.45-1.115 8.471-4.771z"></path>
</svg>
