<!-- Generated by IcoMoon.io -->
<svg version="1.1" xmlns="http://www.w3.org/2000/svg" width="32" height="32" viewBox="0 0 32 32">
<title>Location-Icon</title>
<path fill="#fff" opacity="0.24" d="M16 32c8.837 0 16-7.163 16-16s-7.163-16-16-16c-8.837 0-16 7.163-16 16s7.163 16 16 16z"></path>
<path fill="#f7f7f7" d="M9.231 13.538c0-3.399 2.757-6.154 6.154-6.154s6.154 2.755 6.154 6.154-6.154 10.917-6.154 11.133c0 0.216-6.154-7.734-6.154-11.133zM12.308 12.923c0 1.699 1.379 3.077 3.077 3.077s3.077-1.377 3.077-3.077c0-1.7-1.378-3.077-3.077-3.077s-3.077 1.377-3.077 3.077z"></path>
</svg>
