<!-- Generated by IcoMoon.io -->
<svg version="1.1" xmlns="http://www.w3.org/2000/svg" width="32" height="32" viewBox="0 0 32 32">
<title>rain-drops</title>
<path fill="#f7f7f7" d="M10.22 31.814c0.687 0.124 1.435 0.186 2.122 0.186 0.25 0 0.499 0 0.686 0 2.621-0.124 4.993-1.238 6.803-3.095 0.25 0 0.437 0 0.686 0 3.869-0.248 7.24-2.476 8.925-6.066 1.685-3.652 1.311-7.923-1.123-11.079l-8.8-11.76-4.743 6.685-2.684-3.59-8.55 11.946c-2.184 3.095-2.621 6.932-1.186 10.46 1.373 3.342 4.306 5.694 7.864 6.313zM19.581 2.104l7.801 10.398c2.122 2.847 2.496 6.623 0.999 9.841-1.435 2.971-4.119 4.952-7.364 5.323 0.062-0.062 0.125-0.186 0.187-0.248 0.062-0.124 0.125-0.186 0.187-0.309 0.125-0.124 0.187-0.309 0.25-0.433s0.125-0.248 0.187-0.309c0.062-0.186 0.187-0.309 0.25-0.495 0.062-0.124 0.125-0.248 0.125-0.309 0.062-0.186 0.125-0.371 0.187-0.557 0.062-0.124 0.062-0.186 0.125-0.309 0.062-0.248 0.187-0.557 0.25-0.805 0-0.062 0-0.062 0-0.124 0.062-0.248 0.125-0.495 0.125-0.743 0-0.124 0-0.248 0.062-0.309 0-0.186 0.062-0.371 0.062-0.557 0-0.124 0-0.248 0-0.371 0-0.186 0-0.371 0-0.495s0-0.248 0-0.371c0-0.186 0-0.309-0.062-0.495 0-0.124 0-0.248-0.062-0.371 0-0.186-0.062-0.309-0.062-0.495 0-0.124-0.062-0.248-0.062-0.371-0.062-0.186-0.062-0.309-0.125-0.495-0.062-0.124-0.062-0.248-0.125-0.371-0.062-0.186-0.125-0.309-0.187-0.495-0.062-0.124-0.062-0.248-0.125-0.371-0.062-0.186-0.125-0.309-0.25-0.495-0.062-0.124-0.125-0.248-0.187-0.309-0.062-0.186-0.187-0.371-0.312-0.495-0.062-0.062-0.125-0.186-0.187-0.248-0.187-0.248-0.312-0.495-0.499-0.743l-5.305-7.056 4.119-6.004zM4.541 15.783l7.552-10.584 2.184 2.909 5.617 7.427c3.183 4.209 2.059 9.346-0.686 12.317-1.623 1.733-3.745 2.723-6.179 2.909-0.874 0.062-1.748 0-2.559-0.124-3.183-0.557-5.679-2.6-6.928-5.571-1.311-3.157-0.936-6.561 0.999-9.284z"></path>
</svg>
