<!-- Generated by IcoMoon.io -->
<svg version="1.1" xmlns="http://www.w3.org/2000/svg" width="32" height="32" viewBox="0 0 32 32">
<title>Search-Place</title>
<path fill="#f7f7f7" d="M12.118 24.483c-2.397 0-4.74-0.711-6.733-2.042s-3.546-3.224-4.463-5.439c-0.917-2.214-1.157-4.651-0.69-7.002s1.622-4.51 3.317-6.205 3.854-2.849 6.205-3.317c2.351-0.468 4.787-0.228 7.002 0.69s4.107 2.47 5.439 4.463c1.332 1.993 2.042 4.336 2.042 6.733 0 1.591-0.313 3.167-0.922 4.638s-1.502 2.806-2.627 3.931c-1.125 1.125-2.461 2.018-3.931 2.627s-3.046 0.922-4.637 0.922v0zM12.118 2.67c-1.917 0-3.792 0.569-5.386 1.634s-2.837 2.579-3.571 4.351c-0.734 1.771-0.926 3.721-0.552 5.601s1.297 3.608 2.653 4.964c1.356 1.356 3.083 2.279 4.964 2.653s3.83 0.182 5.601-0.552c1.771-0.734 3.286-1.976 4.351-3.571s1.634-3.469 1.634-5.386c0-2.571-1.021-5.037-2.84-6.855s-4.284-2.84-6.855-2.84v0z"></path>
<path fill="#f7f7f7" d="M30.296 31.754c-0.16 0.001-0.318-0.030-0.465-0.090s-0.282-0.149-0.395-0.262l-9.695-9.695c-0.113-0.113-0.203-0.247-0.264-0.395s-0.093-0.306-0.093-0.466c0-0.16 0.031-0.318 0.093-0.466s0.151-0.282 0.264-0.395c0.113-0.113 0.247-0.203 0.395-0.264s0.306-0.093 0.466-0.093 0.318 0.032 0.466 0.093c0.148 0.061 0.282 0.151 0.395 0.264l9.695 9.695c0.114 0.113 0.204 0.247 0.265 0.394s0.093 0.306 0.093 0.466c0 0.16-0.032 0.318-0.093 0.466s-0.152 0.282-0.265 0.394c-0.113 0.112-0.248 0.201-0.395 0.262s-0.306 0.091-0.465 0.090z"></path>
</svg>
