<!-- Generated by IcoMoon.io -->
<svg version="1.1" xmlns="http://www.w3.org/2000/svg" width="32" height="32" viewBox="0 0 32 32">
<title>slate</title>
<path fill="#b3e5fc" d="M20.667 30c-0.116 0-0.23-0.030-0.331-0.088l-4.336-2.478-4.336 2.478c-0.076 0.045-0.16 0.074-0.248 0.086s-0.177 0.007-0.262-0.016c-0.085-0.023-0.165-0.062-0.235-0.116s-0.129-0.121-0.172-0.198-0.072-0.161-0.083-0.249c-0.011-0.088-0.004-0.177 0.020-0.262s0.064-0.164 0.119-0.234c0.055-0.069 0.123-0.127 0.2-0.17l4.667-2.667c0.101-0.058 0.215-0.088 0.331-0.088s0.23 0.030 0.331 0.088l4.667 2.667c0.128 0.073 0.228 0.186 0.285 0.322s0.067 0.286 0.029 0.428c-0.038 0.142-0.121 0.268-0.238 0.357s-0.26 0.138-0.407 0.138v0z"></path>
<path fill="#81d4fa" d="M21.333 26.041c-0.145-0-0.287-0.048-0.402-0.135l-4.934-3.738-4.931 3.699c-0.104 0.078-0.228 0.124-0.358 0.132s-0.259-0.022-0.371-0.086c-0.113-0.064-0.204-0.16-0.264-0.275s-0.083-0.246-0.070-0.375l0.663-6.182-5.603-2.47c-0.118-0.052-0.219-0.138-0.289-0.246s-0.108-0.235-0.108-0.364 0.038-0.256 0.108-0.364c0.071-0.108 0.171-0.194 0.289-0.246l5.603-2.47-0.663-6.182c-0.014-0.129 0.010-0.259 0.070-0.375s0.151-0.211 0.264-0.275c0.113-0.064 0.242-0.094 0.371-0.086s0.254 0.054 0.358 0.132l4.934 3.7 4.934-3.7c0.104-0.078 0.228-0.124 0.358-0.132s0.259 0.022 0.372 0.086 0.204 0.16 0.264 0.275c0.059 0.116 0.083 0.246 0.070 0.375l-0.663 6.182 5.603 2.47c0.118 0.052 0.219 0.138 0.289 0.246s0.108 0.235 0.108 0.364-0.038 0.256-0.108 0.364c-0.070 0.108-0.171 0.194-0.289 0.246l-5.603 2.47 0.663 6.223c0.010 0.093 0 0.187-0.028 0.276s-0.076 0.171-0.138 0.241c-0.063 0.070-0.139 0.125-0.225 0.163s-0.178 0.058-0.272 0.057v0z"></path>
<path fill="#b3e5fc" d="M16 20.667c0.145-0 0.287 0.047 0.402 0.135l4.104 3.11-0.551-5.174c-0.015-0.141 0.015-0.282 0.086-0.405s0.178-0.219 0.308-0.276l4.665-2.057-4.665-2.057c-0.129-0.057-0.237-0.154-0.308-0.276s-0.101-0.264-0.085-0.405l0.551-5.143-4.107 3.080c-0.115 0.087-0.256 0.134-0.4 0.134s-0.285-0.047-0.4-0.134l-4.107-3.080 0.551 5.143c0.015 0.141-0.015 0.282-0.085 0.405s-0.179 0.219-0.308 0.276l-4.665 2.057 4.665 2.057c0.129 0.057 0.237 0.154 0.308 0.276s0.101 0.264 0.085 0.405l-0.551 5.143 4.107-3.080c0.115-0.087 0.256-0.134 0.4-0.133v0z"></path>
<path fill="#b3e5fc" d="M16 6c-0.116 0-0.23-0.030-0.331-0.088l-4.667-2.667c-0.077-0.043-0.145-0.1-0.2-0.17s-0.095-0.149-0.119-0.234c-0.024-0.085-0.030-0.174-0.020-0.262s0.039-0.172 0.083-0.249c0.044-0.077 0.102-0.144 0.172-0.198s0.15-0.093 0.235-0.116c0.085-0.023 0.174-0.028 0.262-0.016s0.172 0.041 0.248 0.086l4.336 2.478 4.336-2.478c0.076-0.045 0.16-0.074 0.248-0.086s0.176-0.007 0.262 0.016 0.165 0.062 0.235 0.116c0.070 0.054 0.129 0.121 0.172 0.198s0.072 0.161 0.083 0.249 0.004 0.177-0.020 0.262c-0.024 0.085-0.064 0.164-0.119 0.234s-0.123 0.127-0.2 0.17l-4.667 2.667c-0.101 0.058-0.215 0.088-0.331 0.088v0z"></path>
<path fill="#81d4fa" d="M16 32c-0.088 0-0.174-0.017-0.255-0.051s-0.154-0.083-0.216-0.145c-0.062-0.062-0.111-0.135-0.145-0.216s-0.051-0.168-0.051-0.255v-30.667c0-0.177 0.070-0.346 0.195-0.471s0.295-0.195 0.471-0.195 0.346 0.070 0.471 0.195c0.125 0.125 0.195 0.295 0.195 0.471v30.667c0 0.088-0.017 0.174-0.051 0.255s-0.083 0.154-0.145 0.216c-0.062 0.062-0.135 0.111-0.216 0.145s-0.168 0.051-0.255 0.051v0z"></path>
<path fill="#b3e5fc" d="M25.293 27.375h-0.003c-0.177-0.001-0.346-0.072-0.471-0.198s-0.194-0.296-0.193-0.472l0.025-5.375c0.001-0.116 0.032-0.231 0.090-0.331s0.142-0.184 0.243-0.242l4.682-2.708c0.076-0.044 0.159-0.072 0.246-0.084s0.175-0.006 0.259 0.017c0.085 0.023 0.164 0.062 0.233 0.115s0.128 0.12 0.172 0.195c0.044 0.076 0.072 0.159 0.084 0.246s0.006 0.175-0.017 0.259c-0.023 0.085-0.062 0.164-0.115 0.233s-0.12 0.128-0.195 0.171l-4.35 2.517-0.023 4.993c-0.001 0.176-0.071 0.345-0.196 0.47s-0.294 0.194-0.47 0.194v0z"></path>
<path fill="#b3e5fc" d="M2 14.042c-0.147 0-0.289-0.048-0.406-0.138s-0.2-0.214-0.238-0.356c-0.038-0.142-0.028-0.292 0.028-0.427s0.155-0.249 0.282-0.322l4.35-2.517 0.023-4.993c0.001-0.176 0.071-0.345 0.196-0.47s0.294-0.194 0.47-0.194h0.003c0.177 0.001 0.346 0.072 0.471 0.198s0.194 0.295 0.193 0.472l-0.025 5.375c-0 0.116-0.032 0.231-0.090 0.331s-0.142 0.184-0.243 0.242l-4.682 2.708c-0.101 0.059-0.216 0.090-0.333 0.090v0z"></path>
<path fill="#81d4fa" d="M29.393 24.333c-0.116 0-0.23-0.030-0.331-0.088l-26.787-15.333c-0.151-0.089-0.261-0.234-0.306-0.403s-0.021-0.35 0.066-0.502c0.087-0.152 0.23-0.264 0.399-0.311s0.349-0.026 0.503 0.059l26.786 15.333c0.128 0.073 0.227 0.186 0.284 0.322s0.067 0.286 0.029 0.428c-0.038 0.142-0.121 0.268-0.238 0.357s-0.259 0.138-0.406 0.138h-0z"></path>
<path fill="#b3e5fc" d="M30 14.042c-0.117 0-0.232-0.031-0.333-0.090l-4.682-2.708c-0.101-0.058-0.185-0.142-0.243-0.242s-0.090-0.215-0.090-0.331l-0.025-5.375c-0.001-0.177 0.069-0.347 0.193-0.472s0.294-0.197 0.471-0.198h0.003c0.176-0 0.345 0.070 0.47 0.194s0.196 0.293 0.196 0.47l0.023 4.993 4.35 2.517c0.127 0.073 0.226 0.187 0.282 0.322s0.066 0.286 0.028 0.427-0.122 0.267-0.238 0.356c-0.116 0.089-0.259 0.138-0.406 0.138v0z"></path>
<path fill="#b3e5fc" d="M6.707 27.375c-0.176 0-0.345-0.070-0.47-0.194s-0.196-0.293-0.196-0.47l-0.023-4.993-4.35-2.517c-0.076-0.044-0.142-0.102-0.196-0.171s-0.092-0.149-0.115-0.233-0.028-0.173-0.017-0.259c0.011-0.087 0.040-0.17 0.084-0.246s0.102-0.142 0.172-0.195c0.069-0.053 0.149-0.092 0.233-0.115s0.173-0.028 0.259-0.017c0.087 0.012 0.17 0.040 0.246 0.084l4.682 2.708c0.101 0.058 0.185 0.142 0.243 0.242s0.090 0.215 0.090 0.331l0.025 5.375c0.001 0.177-0.069 0.347-0.193 0.472s-0.294 0.197-0.471 0.198h-0.003z"></path>
<path fill="#81d4fa" d="M2.607 24.333c-0.147-0-0.29-0.049-0.406-0.138s-0.2-0.215-0.238-0.357c-0.038-0.142-0.027-0.293 0.029-0.428s0.157-0.249 0.284-0.322l26.786-15.333c0.153-0.085 0.334-0.106 0.503-0.059s0.312 0.159 0.399 0.311c0.087 0.152 0.11 0.332 0.066 0.502s-0.155 0.314-0.306 0.403l-26.786 15.333c-0.101 0.058-0.215 0.088-0.331 0.088v0z"></path>
<path fill="#000" d="M29.667 18.048l-4.351 2.517-3.198-1.831 4.818-2.124c0.118-0.052 0.219-0.138 0.289-0.246s0.108-0.235 0.108-0.364c0-0.129-0.038-0.256-0.108-0.364s-0.171-0.194-0.289-0.246l-4.818-2.124 3.198-1.831 4.351 2.517c0.101 0.059 0.216 0.090 0.333 0.090 0.147 0 0.289-0.048 0.406-0.138s0.2-0.214 0.238-0.356c0.038-0.142 0.028-0.292-0.028-0.427s-0.155-0.249-0.282-0.322l-3.679-2.129 3.070-1.757c0.151-0.089 0.261-0.234 0.306-0.403s0.021-0.35-0.066-0.502c-0.087-0.152-0.23-0.264-0.399-0.311s-0.349-0.026-0.503 0.059l-3.083 1.765-0.020-4.231c-0.001-0.176-0.071-0.345-0.196-0.47s-0.294-0.194-0.47-0.194h-0.003c-0.177 0.001-0.346 0.072-0.471 0.198s-0.194 0.295-0.193 0.472l0.023 4.986-3.231 1.85 0.578-5.393c0.014-0.129-0.010-0.259-0.070-0.375s-0.151-0.211-0.264-0.275-0.242-0.094-0.372-0.086c-0.13 0.008-0.254 0.054-0.358 0.132l-4.267 3.2v-3.613l4.331-2.475c0.077-0.043 0.145-0.1 0.2-0.17s0.095-0.149 0.119-0.234c0.024-0.085 0.030-0.174 0.020-0.262s-0.039-0.172-0.083-0.249c-0.044-0.077-0.102-0.144-0.172-0.198s-0.15-0.093-0.235-0.116c-0.085-0.023-0.174-0.028-0.262-0.016s-0.172 0.041-0.248 0.086l-3.669 2.097v-3.518c0-0.177-0.070-0.346-0.195-0.471s-0.295-0.195-0.471-0.195c-0.177 0-0.346 0.070-0.471 0.195s-0.195 0.295-0.195 0.471v3.518l-3.669-2.097c-0.076-0.045-0.16-0.074-0.248-0.086s-0.176-0.007-0.262 0.016-0.165 0.062-0.235 0.116c-0.070 0.054-0.129 0.121-0.172 0.198s-0.072 0.161-0.083 0.249-0.004 0.177 0.020 0.262c0.024 0.085 0.064 0.164 0.119 0.234s0.123 0.127 0.2 0.17l4.331 2.475v3.613l-4.267-3.2c-0.104-0.078-0.228-0.124-0.358-0.132s-0.259 0.022-0.372 0.086-0.204 0.16-0.264 0.275c-0.059 0.116-0.083 0.246-0.070 0.375l0.578 5.393-3.231-1.85 0.023-4.986c0.001-0.177-0.069-0.347-0.193-0.472s-0.294-0.197-0.471-0.198h-0.003c-0.176-0-0.345 0.070-0.47 0.194s-0.196 0.293-0.196 0.47l-0.020 4.231-3.083-1.765c-0.153-0.085-0.334-0.106-0.503-0.059s-0.312 0.159-0.399 0.311c-0.087 0.152-0.11 0.332-0.066 0.502s0.155 0.314 0.306 0.403l3.070 1.757-3.679 2.129c-0.127 0.073-0.226 0.187-0.282 0.322s-0.066 0.286-0.028 0.427 0.122 0.267 0.238 0.356c0.116 0.089 0.259 0.138 0.406 0.138 0.117 0 0.232-0.031 0.333-0.090l4.351-2.517 3.198 1.831-4.818 2.124c-0.118 0.052-0.219 0.138-0.289 0.246s-0.108 0.235-0.108 0.364c0 0.129 0.038 0.256 0.108 0.364s0.171 0.194 0.289 0.246l4.818 2.124-3.198 1.831-4.351-2.517c-0.076-0.044-0.159-0.072-0.246-0.084s-0.175-0.006-0.259 0.017c-0.085 0.023-0.164 0.062-0.233 0.115s-0.128 0.12-0.172 0.195c-0.044 0.076-0.072 0.159-0.084 0.246s-0.006 0.175 0.017 0.259c0.023 0.085 0.062 0.164 0.115 0.233s0.12 0.128 0.196 0.171l3.679 2.129-3.070 1.757c-0.077 0.043-0.145 0.1-0.2 0.17s-0.095 0.149-0.119 0.234c-0.024 0.085-0.031 0.174-0.020 0.262s0.039 0.172 0.083 0.249c0.044 0.077 0.102 0.144 0.172 0.198s0.15 0.093 0.235 0.116c0.085 0.023 0.174 0.028 0.262 0.016s0.172-0.041 0.248-0.086l3.083-1.765 0.020 4.231c0.001 0.176 0.071 0.345 0.196 0.47s0.294 0.194 0.47 0.194h0.003c0.177-0.001 0.346-0.072 0.471-0.198s0.194-0.296 0.193-0.472l-0.023-4.986 3.231-1.85-0.578 5.393c-0.014 0.129 0.010 0.259 0.070 0.375s0.151 0.211 0.264 0.275c0.113 0.064 0.242 0.094 0.372 0.086s0.254-0.054 0.358-0.132l4.267-3.2v3.614l-4.331 2.475c-0.077 0.043-0.145 0.1-0.2 0.17s-0.095 0.149-0.119 0.234c-0.024 0.085-0.030 0.174-0.020 0.262s0.039 0.172 0.083 0.249c0.044 0.077 0.102 0.144 0.172 0.198s0.15 0.093 0.235 0.116c0.085 0.023 0.174 0.028 0.262 0.016s0.172-0.041 0.248-0.086l3.669-2.097v3.518c0 0.177 0.070 0.346 0.195 0.471s0.295 0.195 0.471 0.195c0.177 0 0.346-0.070 0.471-0.195s0.195-0.295 0.195-0.471v-3.518l3.669 2.097c0.101 0.058 0.215 0.088 0.331 0.088 0.147 0 0.29-0.048 0.407-0.138s0.2-0.215 0.238-0.357c0.038-0.142 0.027-0.293-0.029-0.428s-0.157-0.249-0.285-0.322l-4.331-2.475v-3.605l4.264 3.231c0.104 0.079 0.228 0.125 0.358 0.134s0.259-0.021 0.373-0.085c0.113-0.064 0.205-0.16 0.265-0.276s0.084-0.246 0.070-0.376l-0.579-5.434 3.232 1.85-0.023 4.986c-0.001 0.177 0.069 0.347 0.193 0.472s0.294 0.197 0.471 0.198h0.003c0.176 0 0.345-0.070 0.47-0.194s0.196-0.293 0.196-0.47l0.020-4.231 3.083 1.765c0.153 0.085 0.334 0.106 0.503 0.059s0.312-0.159 0.399-0.311c0.087-0.152 0.11-0.332 0.066-0.502s-0.155-0.314-0.306-0.403l-3.070-1.757 3.679-2.129c0.076-0.044 0.142-0.102 0.195-0.171s0.092-0.149 0.115-0.233 0.028-0.173 0.017-0.259c-0.011-0.087-0.040-0.17-0.084-0.246s-0.102-0.142-0.172-0.195c-0.069-0.053-0.149-0.092-0.233-0.115s-0.173-0.028-0.259-0.017c-0.087 0.012-0.17 0.040-0.246 0.084v0z"></path>
</svg>
