<!-- Generated by IcoMoon.io -->
<svg version="1.1" xmlns="http://www.w3.org/2000/svg" width="32" height="32" viewBox="0 0 32 32">
<title>sn</title>
<path fill="#000" d="M11.83 4.95c1.591-0 3.152 0.433 4.516 1.254s2.476 1.999 3.219 3.406c0.913-0.534 1.937-0.85 2.992-0.923s2.113 0.097 3.091 0.499c0.978 0.402 1.851 1.024 2.549 1.818s1.205 1.739 1.478 2.76c0.274 1.022 0.308 2.092 0.101 3.129s-0.651 2.012-1.297 2.85c-0.646 0.837-1.476 1.515-2.427 1.979s-1.995 0.703-3.052 0.698l-11.195 0.030c-2.321 0-4.546-0.922-6.187-2.563s-2.563-3.867-2.563-6.187c0-2.321 0.922-4.546 2.563-6.187s3.867-2.563 6.187-2.563h0.025z"></path>
<path fill="#000" d="M29.649 17.397c1.022-3.657-1.115-7.45-4.772-8.471s-7.45 1.115-8.471 4.771c-1.022 3.657 1.115 7.45 4.771 8.471s7.45-1.115 8.471-4.771z"></path>
<path fill="none" stroke="#9c9fa0" stroke-linejoin="miter" stroke-linecap="round" stroke-miterlimit="10" stroke-width="0.5818" d="M16.065 13.55v5.065"></path>
<path fill="none" stroke="#9c9fa0" stroke-linejoin="miter" stroke-linecap="round" stroke-miterlimit="10" stroke-width="0.5818" d="M16.65 12.895l-0.585 0.735-0.59-0.735"></path>
<path fill="none" stroke="#9c9fa0" stroke-linejoin="miter" stroke-linecap="round" stroke-miterlimit="10" stroke-width="0.5818" d="M15.475 19.275l0.59-0.735 0.585 0.735"></path>
<path fill="none" stroke="#9c9fa0" stroke-linejoin="miter" stroke-linecap="round" stroke-miterlimit="10" stroke-width="0.5818" d="M18.255 14.815l-4.385 2.535"></path>
<path fill="none" stroke="#9c9fa0" stroke-linejoin="miter" stroke-linecap="round" stroke-miterlimit="10" stroke-width="0.5818" d="M19.12 15l-0.93-0.145 0.34-0.875"></path>
<path fill="none" stroke="#9c9fa0" stroke-linejoin="miter" stroke-linecap="round" stroke-miterlimit="10" stroke-width="0.5818" d="M13.005 17.17l0.93 0.14-0.34 0.88"></path>
<path fill="none" stroke="#9c9fa0" stroke-linejoin="miter" stroke-linecap="round" stroke-miterlimit="10" stroke-width="0.5818" d="M18.255 17.35l-4.385-2.535"></path>
<path fill="none" stroke="#9c9fa0" stroke-linejoin="miter" stroke-linecap="round" stroke-miterlimit="10" stroke-width="0.5818" d="M18.53 18.19l-0.34-0.88 0.93-0.14"></path>
<path fill="none" stroke="#9c9fa0" stroke-linejoin="miter" stroke-linecap="round" stroke-miterlimit="10" stroke-width="0.5818" d="M13.595 13.98l0.34 0.875-0.93 0.145"></path>
<path fill="#c4c4c4" d="M13.25 27.315c0.552 0 1-0.448 1-1s-0.448-1-1-1c-0.552 0-1 0.448-1 1s0.448 1 1 1z"></path>
<path fill="#e0e0e0" d="M18.25 28.565c0.414 0 0.75-0.336 0.75-0.75s-0.336-0.75-0.75-0.75c-0.414 0-0.75 0.336-0.75 0.75s0.336 0.75 0.75 0.75z"></path>
<path fill="#e0e0e0" d="M9.25 25.065c0.414 0 0.75-0.336 0.75-0.75s-0.336-0.75-0.75-0.75c-0.414 0-0.75 0.336-0.75 0.75s0.336 0.75 0.75 0.75z"></path>
<path fill="#fff" d="M16.25 24.815c0.276 0 0.5-0.224 0.5-0.5s-0.224-0.5-0.5-0.5c-0.276 0-0.5 0.224-0.5 0.5s0.224 0.5 0.5 0.5z"></path>
<path fill="#fff" d="M23.25 28.315c0.276 0 0.5-0.224 0.5-0.5s-0.224-0.5-0.5-0.5c-0.276 0-0.5 0.224-0.5 0.5s0.224 0.5 0.5 0.5z"></path>
<path fill="#fff" d="M8.75 28.315c0.276 0 0.5-0.224 0.5-0.5s-0.224-0.5-0.5-0.5c-0.276 0-0.5 0.224-0.5 0.5s0.224 0.5 0.5 0.5z"></path>
<path fill="#c4c4c4" d="M21.25 25.815c0.552 0 1-0.448 1-1s-0.448-1-1-1c-0.552 0-1 0.448-1 1s0.448 1 1 1z"></path>
</svg>
