<!-- Generated by IcoMoon.io -->
<svg version="1.1" xmlns="http://www.w3.org/2000/svg" width="32" height="32" viewBox="0 0 32 32">
<title>t</title>
<path fill="#000" d="M11.83 4.95c1.591-0 3.152 0.433 4.516 1.254s2.476 1.999 3.219 3.406c0.913-0.534 1.937-0.85 2.992-0.923s2.113 0.097 3.091 0.499c0.978 0.402 1.851 1.024 2.549 1.818s1.204 1.739 1.478 2.76c0.274 1.022 0.308 2.092 0.101 3.129s-0.651 2.012-1.297 2.85c-0.646 0.837-1.476 1.515-2.427 1.979s-1.995 0.703-3.052 0.698l-11.195 0.030c-2.321 0-4.546-0.922-6.187-2.563s-2.563-3.867-2.563-6.187c0-2.321 0.922-4.546 2.563-6.187s3.867-2.563 6.187-2.563h0.025z"></path>
<path fill="#000" d="M29.649 17.397c1.022-3.657-1.115-7.45-4.772-8.471s-7.45 1.115-8.471 4.771c-1.022 3.657 1.115 7.45 4.771 8.471s7.45-1.115 8.471-4.771z"></path>
<path fill="#efcc00" d="M16.565 18.175l-1.065 6.125h2.13l-1.065 4.525 5.060-6.39h-2.395l2.13-4.26h-4.795z"></path>
<path fill="#0baeff" d="M14.425 26.64c0 0.493-0.196 0.966-0.545 1.315s-0.822 0.545-1.315 0.545c-0.493 0-0.966-0.196-1.315-0.545s-0.545-0.822-0.545-1.315c0-1.63 1.5-3.14 1.86-3.14s1.86 1.5 1.86 3.14z"></path>
</svg>
